<svg xmlns="http://www.w3.org/2000/svg" xmlns:xlink="http://www.w3.org/1999/xlink" width="500" zoomAndPan="magnify" viewBox="0 0 375 374.999991" height="500" preserveAspectRatio="xMidYMid meet" version="1.0"><defs><g/><clipPath id="fc5e33b8b5"><path d="M 0 0 L 375 0 L 375 375 L 0 375 Z M 0 0 " clip-rule="nonzero"/></clipPath><clipPath id="ff4e73c8b6"><rect x="0" width="375" y="0" height="375"/></clipPath><clipPath id="981752115b"><path d="M 28.472656 138.339844 L 346.472656 138.339844 L 346.472656 235.835938 L 28.472656 235.835938 Z M 28.472656 138.339844 " clip-rule="nonzero"/></clipPath><clipPath id="d50501378e"><path d="M 61.671875 60.300781 L 316.578125 60.300781 L 316.578125 316 L 61.671875 316 Z M 61.671875 60.300781 " clip-rule="nonzero"/></clipPath><clipPath id="a179ebfd47"><path d="M 189.125 60.300781 C 118.734375 60.300781 61.671875 117.433594 61.671875 187.910156 C 61.671875 258.390625 118.734375 315.523438 189.125 315.523438 C 259.515625 315.523438 316.578125 258.390625 316.578125 187.910156 C 316.578125 117.433594 259.515625 60.300781 189.125 60.300781 Z M 189.125 60.300781 " clip-rule="nonzero"/></clipPath><clipPath id="51f8985c44"><path d="M 0.671875 0.300781 L 255.578125 0.300781 L 255.578125 255.601562 L 0.671875 255.601562 Z M 0.671875 0.300781 " clip-rule="nonzero"/></clipPath><clipPath id="57c284a65e"><path d="M 128.125 0.300781 C 57.734375 0.300781 0.671875 57.433594 0.671875 127.910156 C 0.671875 198.390625 57.734375 255.523438 128.125 255.523438 C 198.515625 255.523438 255.578125 198.390625 255.578125 127.910156 C 255.578125 57.433594 198.515625 0.300781 128.125 0.300781 Z M 128.125 0.300781 " clip-rule="nonzero"/></clipPath><clipPath id="d5e8749470"><rect x="0" width="256" y="0" height="256"/></clipPath><clipPath id="57ca958bc2"><path d="M 61.671875 60.300781 L 316.671875 60.300781 L 316.671875 315.300781 L 61.671875 315.300781 Z M 61.671875 60.300781 " clip-rule="nonzero"/></clipPath><clipPath id="87e1ceff50"><path d="M 189.125 60.300781 C 118.734375 60.300781 61.671875 117.433594 61.671875 187.910156 C 61.671875 258.386719 118.734375 315.519531 189.125 315.519531 C 259.515625 315.519531 316.578125 258.386719 316.578125 187.910156 C 316.578125 117.433594 259.515625 60.300781 189.125 60.300781 Z M 189.125 60.300781 " clip-rule="nonzero"/></clipPath><clipPath id="4a20d071c6"><path d="M 64.472656 64.058594 L 310.472656 64.058594 L 310.472656 310.058594 L 64.472656 310.058594 Z M 64.472656 64.058594 " clip-rule="nonzero"/></clipPath><clipPath id="22dc9db2f1"><path d="M 187.496094 64.058594 C 119.550781 64.058594 64.472656 119.140625 64.472656 187.082031 C 64.472656 255.027344 119.550781 310.105469 187.496094 310.105469 C 255.4375 310.105469 310.519531 255.027344 310.519531 187.082031 C 310.519531 119.140625 255.4375 64.058594 187.496094 64.058594 Z M 187.496094 64.058594 " clip-rule="nonzero"/></clipPath><clipPath id="dd22d2d493"><path d="M 60.046875 59.480469 L 315 59.480469 L 315 314.476562 L 60.046875 314.476562 Z M 60.046875 59.480469 " clip-rule="nonzero"/></clipPath><clipPath id="91c828c554"><path d="M 187.5 59.480469 C 117.109375 59.480469 60.046875 116.613281 60.046875 187.089844 C 60.046875 257.566406 117.109375 314.699219 187.5 314.699219 C 257.890625 314.699219 314.953125 257.566406 314.953125 187.089844 C 314.953125 116.613281 257.890625 59.480469 187.5 59.480469 Z M 187.5 59.480469 " clip-rule="nonzero"/></clipPath><clipPath id="6a1dc718af"><path d="M 28.472656 144.339844 L 346.527344 144.339844 L 346.527344 229.839844 L 28.472656 229.839844 Z M 28.472656 144.339844 " clip-rule="nonzero"/></clipPath><clipPath id="8f16f87ab6"><path d="M 0.472656 0.339844 L 318.527344 0.339844 L 318.527344 85.839844 L 0.472656 85.839844 Z M 0.472656 0.339844 " clip-rule="nonzero"/></clipPath><clipPath id="3ff8eedfe1"><rect x="0" width="319" y="0" height="86"/></clipPath><clipPath id="d40b384a24"><path d="M 28.472656 144.339844 L 346.472656 144.339844 L 346.472656 229.839844 L 28.472656 229.839844 Z M 28.472656 144.339844 " clip-rule="nonzero"/></clipPath><clipPath id="ba0916deb1"><path d="M 0 150.339844 L 375 150.339844 L 375 223.839844 L 0 223.839844 Z M 0 150.339844 " clip-rule="nonzero"/></clipPath><clipPath id="16b88d7b4b"><path d="M 0 0.339844 L 375 0.339844 L 375 73.839844 L 0 73.839844 Z M 0 0.339844 " clip-rule="nonzero"/></clipPath><clipPath id="ce5fcd120c"><rect x="0" width="375" y="0" height="74"/></clipPath></defs><rect x="-37.5" width="450" fill="#ffffff" y="-37.499999" height="449.999989" fill-opacity="1"/><rect x="-37.5" width="450" fill="#1d1820" y="-37.499999" height="449.999989" fill-opacity="1"/><g transform="matrix(1, 0, 0, 1, 0, 0)"><g clip-path="url(#ff4e73c8b6)"><g clip-path="url(#fc5e33b8b5)"><rect x="-82.5" width="540" fill="#1a1614" height="539.999987" y="-82.499998" fill-opacity="1"/></g></g></g><g clip-path="url(#981752115b)"><path stroke-linecap="butt" transform="matrix(0.75, 0, 0, 0.75, 28.472226, 138.340407)" fill="none" stroke-linejoin="miter" d="M 0.00057432 -0.000750888 L 424.063102 -0.000750888 L 424.063102 129.994049 L 0.00057432 129.994049 Z M 0.00057432 -0.000750888 " stroke="#e4277f" stroke-width="16" stroke-opacity="1" stroke-miterlimit="4"/></g><g clip-path="url(#d50501378e)"><g clip-path="url(#a179ebfd47)"><g transform="matrix(1, 0, 0, 1, 61, 60)"><g clip-path="url(#d5e8749470)"><g clip-path="url(#51f8985c44)"><g clip-path="url(#57c284a65e)"><path fill="#1a1614" d="M 0.671875 0.300781 L 255.578125 0.300781 L 255.578125 255.207031 L 0.671875 255.207031 Z M 0.671875 0.300781 " fill-opacity="1" fill-rule="nonzero"/></g></g></g></g></g></g><g clip-path="url(#57ca958bc2)"><g clip-path="url(#87e1ceff50)"><path stroke-linecap="butt" transform="matrix(0.75, 0, 0, 0.75, 61.67083, 60.300651)" fill="none" stroke-linejoin="miter" d="M 169.938904 0.000173346 C 76.084732 0.000173346 0.00139327 76.177262 0.00139327 170.146018 C 0.00139327 264.114774 76.084732 340.291862 169.938904 340.291862 C 263.793077 340.291862 339.876416 264.114774 339.876416 170.146018 C 339.876416 76.177262 263.793077 0.000173346 169.938904 0.000173346 Z M 169.938904 0.000173346 " stroke="#e4277f" stroke-width="8" stroke-opacity="1" stroke-miterlimit="4"/></g></g><g clip-path="url(#4a20d071c6)"><g clip-path="url(#22dc9db2f1)"><path stroke-linecap="butt" transform="matrix(0.75, 0, 0, 0.75, 64.47085, 64.059927)" fill="none" stroke-linejoin="miter" d="M 164.033669 -0.00177766 C 73.439913 -0.00177766 0.00240851 73.440935 0.00240851 164.029483 C 0.00240851 254.623239 73.439913 328.060744 164.033669 328.060744 C 254.622217 328.060744 328.06493 254.623239 328.06493 164.029483 C 328.06493 73.440935 254.622217 -0.00177766 164.033669 -0.00177766 Z M 164.033669 -0.00177766 " stroke="#fdfdfd" stroke-width="16" stroke-opacity="1" stroke-miterlimit="4"/></g></g><path stroke-linecap="butt" transform="matrix(-0.00704899, 0.749967, -0.749967, -0.00704899, 145.849596, 98.306895)" fill="none" stroke-linejoin="miter" d="M 2.667999 56.412297 C 80.681318 -13.469847 158.695196 -13.468698 236.709583 56.410537 " stroke="#fdfdfd" stroke-width="8" stroke-opacity="1" stroke-miterlimit="4"/><path stroke-linecap="butt" transform="matrix(-0.00815848, -0.749956, 0.749956, -0.00815848, 236.253416, 275.1296)" fill="none" stroke-linejoin="miter" d="M 2.619512 52.792694 C 77.592072 -12.265404 152.565232 -12.262348 227.539105 52.791446 " stroke="#fdfdfd" stroke-width="8" stroke-opacity="1" stroke-miterlimit="4"/><path stroke-linecap="butt" transform="matrix(0.000000001309, 0.75, -0.75, 0.000000001309, 190.49428, 64.065649)" fill="none" stroke-linejoin="miter" d="M 0.0010102 3.997582 L 328.079157 3.997582 " stroke="#fdfdfd" stroke-width="8" stroke-opacity="1" stroke-miterlimit="4"/><path stroke-linecap="butt" transform="matrix(0.75, 0.000000000000000065, -0.000000000000000065, 0.75, 64.47085, 184.08907)" fill="none" stroke-linejoin="miter" d="M 0.00240851 4.001033 L 328.075347 4.001033 " stroke="#fdfdfd" stroke-width="8" stroke-opacity="1" stroke-miterlimit="4"/><g clip-path="url(#dd22d2d493)"><g clip-path="url(#91c828c554)"><path stroke-linecap="butt" transform="matrix(0.75, 0, 0, 0.75, 60.04544, 59.478831)" fill="none" stroke-linejoin="miter" d="M 169.939425 0.00218327 C 76.085252 0.00218327 0.00191366 76.179272 0.00191366 170.148028 C 0.00191366 264.116784 76.085252 340.293872 169.939425 340.293872 C 263.793598 340.293872 339.876936 264.116784 339.876936 170.148028 C 339.876936 76.179272 263.793598 0.00218327 169.939425 0.00218327 Z M 169.939425 0.00218327 " stroke="#e4277f" stroke-width="16" stroke-opacity="1" stroke-miterlimit="4"/></g></g><g clip-path="url(#6a1dc718af)"><g transform="matrix(1, 0, 0, 1, 28, 144)"><g clip-path="url(#3ff8eedfe1)"><g clip-path="url(#8f16f87ab6)"><path fill="#1a1614" d="M 0.472656 0.339844 L 318.425781 0.339844 L 318.425781 85.839844 L 0.472656 85.839844 Z M 0.472656 0.339844 " fill-opacity="1" fill-rule="nonzero"/></g></g></g></g><g clip-path="url(#d40b384a24)"><path stroke-linecap="butt" transform="matrix(0.75, 0, 0, 0.75, 28.472226, 144.340243)" fill="none" stroke-linejoin="miter" d="M 0.00057432 -0.000532762 L 424.063102 -0.000532762 L 424.063102 113.999475 L 0.00057432 113.999475 Z M 0.00057432 -0.000532762 " stroke="#fdfdfd" stroke-width="30" stroke-opacity="1" stroke-miterlimit="4"/></g><g clip-path="url(#ba0916deb1)"><g transform="matrix(1, 0, 0, 1, 0, 150)"><g clip-path="url(#ce5fcd120c)"><g clip-path="url(#16b88d7b4b)"><path fill="#1a1614" d="M 0 0.339844 L 374.964844 0.339844 L 374.964844 73.839844 L 0 73.839844 Z M 0 0.339844 " fill-opacity="1" fill-rule="nonzero"/></g></g></g></g><g fill="#e4277f" fill-opacity="1"><g transform="translate(17.558353, 205.943086)"><g><path d="M 10.105469 1.894531 L 0.125 1.894531 L 0.125 -36.386719 C 0.125 -38.019531 0.707031 -39.417969 1.867188 -40.582031 C 3.03125 -41.742188 4.429688 -42.324219 6.0625 -42.324219 C 7.699219 -42.324219 9.105469 -41.734375 10.285156 -40.554688 L 35.703125 -15.136719 L 34.363281 -13.796875 L 32.46875 -13.796875 L 32.46875 -42.324219 L 44.34375 -42.324219 L 44.34375 -4.042969 C 44.34375 -2.40625 43.761719 -1.007812 42.601562 0.152344 C 41.441406 1.3125 40.042969 1.894531 38.40625 1.894531 C 36.773438 1.894531 35.363281 1.304688 34.1875 0.128906 L 8.765625 -25.292969 L 10.105469 -26.632812 L 12.003906 -26.632812 L 12.003906 1.894531 Z M 10.105469 -1.894531 L 10.105469 0 L 8.210938 0 L 8.210938 -31.207031 L 36.867188 -2.554688 C 37.304688 -2.113281 37.816406 -1.894531 38.40625 -1.894531 C 38.996094 -1.894531 39.5 -2.105469 39.921875 -2.527344 C 40.34375 -2.949219 40.554688 -3.453125 40.554688 -4.042969 L 40.554688 -40.429688 L 42.449219 -40.429688 L 42.449219 -38.53125 L 34.363281 -38.53125 L 34.363281 -40.429688 L 36.257812 -40.429688 L 36.257812 -9.222656 L 7.605469 -37.875 C 7.167969 -38.3125 6.652344 -38.53125 6.0625 -38.53125 C 5.476562 -38.53125 4.972656 -38.320312 4.550781 -37.898438 C 4.128906 -37.480469 3.917969 -36.972656 3.917969 -36.386719 L 3.917969 0 L 2.019531 0 L 2.019531 -1.894531 Z M 10.105469 -1.894531 "/></g></g></g><g fill="#e4277f" fill-opacity="1"><g transform="translate(62.935478, 205.943086)"><g><path d="M 34.363281 1.894531 L 10.105469 1.894531 C 8.28125 1.894531 6.605469 1.445312 5.078125 0.546875 C 3.566406 -0.34375 2.363281 -1.542969 1.476562 -3.054688 C 0.574219 -4.582031 0.125 -6.257812 0.125 -8.085938 L 0.125 -18.066406 L 12.003906 -18.066406 L 12.003906 -8.085938 L 10.105469 -8.085938 L 10.105469 -9.980469 L 34.363281 -9.980469 L 34.363281 -8.085938 L 32.46875 -8.085938 L 32.46875 -32.34375 L 34.363281 -32.34375 L 34.363281 -30.445312 L 16.296875 -30.445312 L 16.296875 -42.324219 L 44.34375 -42.324219 L 44.34375 -8.085938 C 44.34375 -6.292969 43.894531 -4.632812 42.996094 -3.105469 C 42.109375 -1.605469 40.925781 -0.402344 39.445312 0.503906 C 37.929688 1.433594 36.234375 1.894531 34.363281 1.894531 Z M 34.363281 -1.894531 C 35.523438 -1.894531 36.558594 -2.171875 37.46875 -2.730469 C 38.414062 -3.304688 39.164062 -4.074219 39.730469 -5.03125 C 40.28125 -5.960938 40.554688 -6.980469 40.554688 -8.085938 L 40.554688 -40.429688 L 42.449219 -40.429688 L 42.449219 -38.53125 L 18.191406 -38.53125 L 18.191406 -40.429688 L 20.085938 -40.429688 L 20.085938 -32.34375 L 18.191406 -32.34375 L 18.191406 -34.238281 L 36.257812 -34.238281 L 36.257812 -6.191406 L 8.210938 -6.191406 L 8.210938 -16.171875 L 10.105469 -16.171875 L 10.105469 -14.277344 L 2.019531 -14.277344 L 2.019531 -16.171875 L 3.917969 -16.171875 L 3.917969 -8.085938 C 3.917969 -6.949219 4.191406 -5.914062 4.742188 -4.980469 C 5.300781 -4.03125 6.050781 -3.277344 7 -2.71875 C 7.933594 -2.167969 8.96875 -1.894531 10.105469 -1.894531 Z M 34.363281 -1.894531 "/></g></g></g><g fill="#e4277f" fill-opacity="1"><g transform="translate(108.312604, 205.943086)"><g/></g></g><g fill="#e4277f" fill-opacity="1"><g transform="translate(131.456, 205.943086)"><g><path d="M 44.34375 -40.429688 L 44.34375 -30.445312 L 10.105469 -30.445312 L 10.105469 -32.34375 L 12.003906 -32.34375 L 12.003906 -24.257812 L 10.105469 -24.257812 L 10.105469 -26.152344 L 34.363281 -26.152344 C 36.191406 -26.152344 37.867188 -25.703125 39.394531 -24.804688 C 40.90625 -23.914062 42.105469 -22.710938 42.996094 -21.199219 C 43.894531 -19.675781 44.34375 -17.996094 44.34375 -16.171875 L 44.34375 -8.085938 C 44.34375 -6.257812 43.894531 -4.582031 42.996094 -3.054688 C 42.105469 -1.542969 40.90625 -0.34375 39.394531 0.546875 C 37.867188 1.445312 36.191406 1.894531 34.363281 1.894531 L 0.125 1.894531 L 0.125 -9.980469 L 34.363281 -9.980469 L 34.363281 -8.085938 L 32.46875 -8.085938 L 32.46875 -16.171875 L 34.363281 -16.171875 L 34.363281 -14.277344 L 10.105469 -14.277344 C 8.28125 -14.277344 6.605469 -14.726562 5.078125 -15.625 C 3.566406 -16.515625 2.363281 -17.714844 1.476562 -19.226562 C 0.574219 -20.753906 0.125 -22.429688 0.125 -24.257812 L 0.125 -32.34375 C 0.125 -34.167969 0.574219 -35.847656 1.476562 -37.371094 C 2.363281 -38.882812 3.566406 -40.085938 5.078125 -40.972656 C 6.605469 -41.875 8.28125 -42.324219 10.105469 -42.324219 L 44.34375 -42.324219 Z M 40.554688 -40.429688 L 42.449219 -40.429688 L 42.449219 -38.53125 L 10.105469 -38.53125 C 8.96875 -38.53125 7.933594 -38.257812 7 -37.707031 C 6.050781 -37.148438 5.300781 -36.398438 4.742188 -35.449219 C 4.191406 -34.515625 3.917969 -33.480469 3.917969 -32.34375 L 3.917969 -24.257812 C 3.917969 -23.117188 4.191406 -22.082031 4.742188 -21.152344 C 5.300781 -20.203125 6.050781 -19.449219 7 -18.890625 C 7.933594 -18.339844 8.96875 -18.066406 10.105469 -18.066406 L 36.257812 -18.066406 L 36.257812 -6.191406 L 2.019531 -6.191406 L 2.019531 -8.085938 L 3.917969 -8.085938 L 3.917969 0 L 2.019531 0 L 2.019531 -1.894531 L 34.363281 -1.894531 C 35.5 -1.894531 36.539062 -2.167969 37.46875 -2.71875 C 38.417969 -3.277344 39.171875 -4.03125 39.730469 -4.980469 C 40.28125 -5.914062 40.554688 -6.949219 40.554688 -8.085938 L 40.554688 -16.171875 C 40.554688 -17.308594 40.28125 -18.34375 39.730469 -19.277344 C 39.171875 -20.226562 38.417969 -20.980469 37.46875 -21.539062 C 36.539062 -22.085938 35.5 -22.363281 34.363281 -22.363281 L 8.210938 -22.363281 L 8.210938 -34.238281 L 42.449219 -34.238281 L 42.449219 -32.34375 L 40.554688 -32.34375 Z M 40.554688 -40.429688 "/></g></g></g><g fill="#e4277f" fill-opacity="1"><g transform="translate(176.833126, 205.943086)"><g><path d="M 44.34375 -40.429688 L 44.34375 -30.445312 L 26.277344 -30.445312 L 26.277344 -32.34375 L 28.171875 -32.34375 L 28.171875 1.894531 L 16.296875 1.894531 L 16.296875 -32.34375 L 18.191406 -32.34375 L 18.191406 -30.445312 L 0.125 -30.445312 L 0.125 -42.324219 L 44.34375 -42.324219 Z M 40.554688 -40.429688 L 42.449219 -40.429688 L 42.449219 -38.53125 L 2.019531 -38.53125 L 2.019531 -40.429688 L 3.917969 -40.429688 L 3.917969 -32.34375 L 2.019531 -32.34375 L 2.019531 -34.238281 L 20.085938 -34.238281 L 20.085938 0 L 18.191406 0 L 18.191406 -1.894531 L 26.277344 -1.894531 L 26.277344 0 L 24.382812 0 L 24.382812 -34.238281 L 42.449219 -34.238281 L 42.449219 -32.34375 L 40.554688 -32.34375 Z M 40.554688 -40.429688 "/></g></g></g><g fill="#e4277f" fill-opacity="1"><g transform="translate(222.21024, 205.943086)"><g><path d="M 10.105469 -42.324219 L 34.363281 -42.324219 C 36.191406 -42.324219 37.867188 -41.875 39.394531 -40.972656 C 40.90625 -40.085938 42.105469 -38.882812 42.996094 -37.371094 C 43.894531 -35.847656 44.34375 -34.167969 44.34375 -32.34375 L 44.34375 1.894531 L 32.46875 1.894531 L 32.46875 -16.171875 L 34.363281 -16.171875 L 34.363281 -14.277344 L 10.105469 -14.277344 L 10.105469 -16.171875 L 12.003906 -16.171875 L 12.003906 1.894531 L 0.125 1.894531 L 0.125 -32.34375 C 0.125 -34.167969 0.574219 -35.847656 1.476562 -37.371094 C 2.363281 -38.882812 3.566406 -40.085938 5.078125 -40.972656 C 6.605469 -41.875 8.28125 -42.324219 10.105469 -42.324219 Z M 10.105469 -38.53125 C 8.96875 -38.53125 7.933594 -38.257812 7 -37.707031 C 6.050781 -37.148438 5.300781 -36.398438 4.742188 -35.449219 C 4.191406 -34.515625 3.917969 -33.480469 3.917969 -32.34375 L 3.917969 0 L 2.019531 0 L 2.019531 -1.894531 L 10.105469 -1.894531 L 10.105469 0 L 8.210938 0 L 8.210938 -18.066406 L 36.257812 -18.066406 L 36.257812 0 L 34.363281 0 L 34.363281 -1.894531 L 42.449219 -1.894531 L 42.449219 0 L 40.554688 0 L 40.554688 -32.34375 C 40.554688 -33.480469 40.28125 -34.515625 39.730469 -35.449219 C 39.171875 -36.398438 38.417969 -37.148438 37.46875 -37.707031 C 36.539062 -38.257812 35.5 -38.53125 34.363281 -38.53125 Z M 12.003906 -32.34375 L 12.003906 -24.257812 L 10.105469 -24.257812 L 10.105469 -26.152344 L 34.363281 -26.152344 L 34.363281 -24.257812 L 32.46875 -24.257812 L 32.46875 -32.34375 L 34.363281 -32.34375 L 34.363281 -30.445312 L 10.105469 -30.445312 L 10.105469 -32.34375 Z M 8.210938 -34.238281 L 36.257812 -34.238281 L 36.257812 -22.363281 L 8.210938 -22.363281 Z M 8.210938 -34.238281 "/></g></g></g><g fill="#e4277f" fill-opacity="1"><g transform="translate(267.587389, 205.943086)"><g><path d="M 44.34375 -32.34375 L 44.34375 -24.257812 C 44.34375 -22.429688 43.894531 -20.753906 42.996094 -19.226562 C 42.105469 -17.714844 40.90625 -16.515625 39.394531 -15.625 C 37.867188 -14.726562 36.191406 -14.277344 34.363281 -14.277344 L 26.277344 -14.277344 L 26.277344 -16.171875 L 27.617188 -17.511719 L 35.703125 -9.425781 L 34.363281 -8.085938 L 34.363281 -9.980469 L 44.34375 -9.980469 L 44.34375 1.894531 L 32.746094 1.894531 C 31.078125 1.894531 29.652344 1.304688 28.476562 0.128906 L 13.515625 -14.832031 L 14.855469 -16.171875 L 14.855469 -14.277344 L 10.105469 -14.277344 L 10.105469 -16.171875 L 12.003906 -16.171875 L 12.003906 1.894531 L 0.125 1.894531 L 0.125 -42.324219 L 34.363281 -42.324219 C 36.191406 -42.324219 37.867188 -41.875 39.394531 -40.972656 C 40.90625 -40.085938 42.105469 -38.882812 42.996094 -37.371094 C 43.894531 -35.847656 44.34375 -34.167969 44.34375 -32.34375 Z M 40.554688 -32.34375 C 40.554688 -33.480469 40.28125 -34.515625 39.730469 -35.449219 C 39.171875 -36.398438 38.417969 -37.148438 37.46875 -37.707031 C 36.539062 -38.257812 35.5 -38.53125 34.363281 -38.53125 L 2.019531 -38.53125 L 2.019531 -40.429688 L 3.917969 -40.429688 L 3.917969 0 L 2.019531 0 L 2.019531 -1.894531 L 10.105469 -1.894531 L 10.105469 0 L 8.210938 0 L 8.210938 -18.066406 L 15.640625 -18.066406 L 31.15625 -2.554688 C 31.59375 -2.113281 32.125 -1.894531 32.746094 -1.894531 L 42.449219 -1.894531 L 42.449219 0 L 40.554688 0 L 40.554688 -8.085938 L 42.449219 -8.085938 L 42.449219 -6.191406 L 33.578125 -6.191406 L 21.703125 -18.066406 L 34.363281 -18.066406 C 35.5 -18.066406 36.539062 -18.339844 37.46875 -18.890625 C 38.417969 -19.449219 39.171875 -20.203125 39.730469 -21.152344 C 40.28125 -22.082031 40.554688 -23.117188 40.554688 -24.257812 Z M 34.363281 -30.445312 L 10.105469 -30.445312 L 10.105469 -32.34375 L 12.003906 -32.34375 L 12.003906 -24.257812 L 10.105469 -24.257812 L 10.105469 -26.152344 L 34.363281 -26.152344 L 34.363281 -24.257812 L 32.46875 -24.257812 L 32.46875 -32.34375 L 34.363281 -32.34375 Z M 36.257812 -34.238281 L 36.257812 -22.363281 L 8.210938 -22.363281 L 8.210938 -34.238281 Z M 36.257812 -34.238281 "/></g></g></g><g fill="#e4277f" fill-opacity="1"><g transform="translate(312.964492, 205.943086)"><g><path d="M 44.34375 -40.429688 L 44.34375 -30.445312 L 10.105469 -30.445312 L 10.105469 -32.34375 L 12.003906 -32.34375 L 12.003906 -24.257812 L 10.105469 -24.257812 L 10.105469 -26.152344 L 34.363281 -26.152344 C 36.191406 -26.152344 37.867188 -25.703125 39.394531 -24.804688 C 40.90625 -23.914062 42.105469 -22.710938 42.996094 -21.199219 C 43.894531 -19.675781 44.34375 -17.996094 44.34375 -16.171875 L 44.34375 -8.085938 C 44.34375 -6.257812 43.894531 -4.582031 42.996094 -3.054688 C 42.105469 -1.542969 40.90625 -0.34375 39.394531 0.546875 C 37.867188 1.445312 36.191406 1.894531 34.363281 1.894531 L 0.125 1.894531 L 0.125 -9.980469 L 34.363281 -9.980469 L 34.363281 -8.085938 L 32.46875 -8.085938 L 32.46875 -16.171875 L 34.363281 -16.171875 L 34.363281 -14.277344 L 10.105469 -14.277344 C 8.28125 -14.277344 6.605469 -14.726562 5.078125 -15.625 C 3.566406 -16.515625 2.363281 -17.714844 1.476562 -19.226562 C 0.574219 -20.753906 0.125 -22.429688 0.125 -24.257812 L 0.125 -32.34375 C 0.125 -34.167969 0.574219 -35.847656 1.476562 -37.371094 C 2.363281 -38.882812 3.566406 -40.085938 5.078125 -40.972656 C 6.605469 -41.875 8.28125 -42.324219 10.105469 -42.324219 L 44.34375 -42.324219 Z M 40.554688 -40.429688 L 42.449219 -40.429688 L 42.449219 -38.53125 L 10.105469 -38.53125 C 8.96875 -38.53125 7.933594 -38.257812 7 -37.707031 C 6.050781 -37.148438 5.300781 -36.398438 4.742188 -35.449219 C 4.191406 -34.515625 3.917969 -33.480469 3.917969 -32.34375 L 3.917969 -24.257812 C 3.917969 -23.117188 4.191406 -22.082031 4.742188 -21.152344 C 5.300781 -20.203125 6.050781 -19.449219 7 -18.890625 C 7.933594 -18.339844 8.96875 -18.066406 10.105469 -18.066406 L 36.257812 -18.066406 L 36.257812 -6.191406 L 2.019531 -6.191406 L 2.019531 -8.085938 L 3.917969 -8.085938 L 3.917969 0 L 2.019531 0 L 2.019531 -1.894531 L 34.363281 -1.894531 C 35.5 -1.894531 36.539062 -2.167969 37.46875 -2.71875 C 38.417969 -3.277344 39.171875 -4.03125 39.730469 -4.980469 C 40.28125 -5.914062 40.554688 -6.949219 40.554688 -8.085938 L 40.554688 -16.171875 C 40.554688 -17.308594 40.28125 -18.34375 39.730469 -19.277344 C 39.171875 -20.226562 38.417969 -20.980469 37.46875 -21.539062 C 36.539062 -22.085938 35.5 -22.363281 34.363281 -22.363281 L 8.210938 -22.363281 L 8.210938 -34.238281 L 42.449219 -34.238281 L 42.449219 -32.34375 L 40.554688 -32.34375 Z M 40.554688 -40.429688 "/></g></g></g><g fill="#fdfdfd" fill-opacity="1"><g transform="translate(17.558353, 205.943086)"><g><path d="M 10.109375 0 L 2.015625 0 L 2.015625 -36.375 C 2.015625 -37.488281 2.410156 -38.441406 3.203125 -39.234375 C 3.992188 -40.023438 4.945312 -40.421875 6.0625 -40.421875 C 7.175781 -40.421875 8.132812 -40.019531 8.9375 -39.21875 L 34.359375 -13.796875 L 34.359375 -40.421875 L 42.453125 -40.421875 L 42.453125 -4.046875 C 42.453125 -2.929688 42.054688 -1.976562 41.265625 -1.1875 C 40.472656 -0.394531 39.519531 0 38.40625 0 C 37.289062 0 36.328125 -0.40625 35.515625 -1.21875 L 10.109375 -26.625 Z M 10.109375 0 "/></g></g></g><g fill="#fdfdfd" fill-opacity="1"><g transform="translate(62.935478, 205.943086)"><g><path d="M 34.359375 0 L 10.109375 0 C 8.628906 0 7.269531 -0.359375 6.03125 -1.078125 C 4.800781 -1.804688 3.820312 -2.785156 3.09375 -4.015625 C 2.375 -5.242188 2.015625 -6.597656 2.015625 -8.078125 L 2.015625 -16.171875 L 10.109375 -16.171875 L 10.109375 -8.078125 L 34.359375 -8.078125 L 34.359375 -32.34375 L 18.1875 -32.34375 L 18.1875 -40.421875 L 42.453125 -40.421875 L 42.453125 -8.078125 C 42.453125 -6.628906 42.085938 -5.289062 41.359375 -4.0625 C 40.628906 -2.832031 39.660156 -1.847656 38.453125 -1.109375 C 37.242188 -0.367188 35.878906 0 34.359375 0 Z M 34.359375 0 "/></g></g></g><g fill="#fdfdfd" fill-opacity="1"><g transform="translate(108.312604, 205.943086)"><g/></g></g><g fill="#fdfdfd" fill-opacity="1"><g transform="translate(131.456, 205.943086)"><g><path d="M 42.453125 -40.421875 L 42.453125 -32.34375 L 10.109375 -32.34375 L 10.109375 -24.25 L 34.359375 -24.25 C 35.835938 -24.25 37.191406 -23.882812 38.421875 -23.15625 C 39.648438 -22.4375 40.628906 -21.460938 41.359375 -20.234375 C 42.085938 -19.003906 42.453125 -17.648438 42.453125 -16.171875 L 42.453125 -8.078125 C 42.453125 -6.597656 42.085938 -5.242188 41.359375 -4.015625 C 40.628906 -2.785156 39.648438 -1.804688 38.421875 -1.078125 C 37.191406 -0.359375 35.835938 0 34.359375 0 L 2.015625 0 L 2.015625 -8.078125 L 34.359375 -8.078125 L 34.359375 -16.171875 L 10.109375 -16.171875 C 8.628906 -16.171875 7.269531 -16.53125 6.03125 -17.25 C 4.800781 -17.976562 3.820312 -18.957031 3.09375 -20.1875 C 2.375 -21.414062 2.015625 -22.769531 2.015625 -24.25 L 2.015625 -32.34375 C 2.015625 -33.820312 2.375 -35.175781 3.09375 -36.40625 C 3.820312 -37.632812 4.800781 -38.609375 6.03125 -39.328125 C 7.269531 -40.054688 8.628906 -40.421875 10.109375 -40.421875 Z M 42.453125 -40.421875 "/></g></g></g><g fill="#fdfdfd" fill-opacity="1"><g transform="translate(176.833126, 205.943086)"><g><path d="M 42.453125 -40.421875 L 42.453125 -32.34375 L 26.28125 -32.34375 L 26.28125 0 L 18.1875 0 L 18.1875 -32.34375 L 2.015625 -32.34375 L 2.015625 -40.421875 Z M 42.453125 -40.421875 "/></g></g></g><g fill="#fdfdfd" fill-opacity="1"><g transform="translate(222.21024, 205.943086)"><g><path d="M 10.109375 -40.421875 L 34.359375 -40.421875 C 35.835938 -40.421875 37.191406 -40.054688 38.421875 -39.328125 C 39.648438 -38.609375 40.628906 -37.632812 41.359375 -36.40625 C 42.085938 -35.175781 42.453125 -33.820312 42.453125 -32.34375 L 42.453125 0 L 34.359375 0 L 34.359375 -16.171875 L 10.109375 -16.171875 L 10.109375 0 L 2.015625 0 L 2.015625 -32.34375 C 2.015625 -33.820312 2.375 -35.175781 3.09375 -36.40625 C 3.820312 -37.632812 4.800781 -38.609375 6.03125 -39.328125 C 7.269531 -40.054688 8.628906 -40.421875 10.109375 -40.421875 Z M 10.109375 -32.34375 L 10.109375 -24.25 L 34.359375 -24.25 L 34.359375 -32.34375 Z M 10.109375 -32.34375 "/></g></g></g><g fill="#fdfdfd" fill-opacity="1"><g transform="translate(267.587389, 205.943086)"><g><path d="M 42.453125 -32.34375 L 42.453125 -24.25 C 42.453125 -22.769531 42.085938 -21.414062 41.359375 -20.1875 C 40.628906 -18.957031 39.648438 -17.976562 38.421875 -17.25 C 37.191406 -16.53125 35.835938 -16.171875 34.359375 -16.171875 L 26.28125 -16.171875 L 34.359375 -8.078125 L 42.453125 -8.078125 L 42.453125 0 L 32.75 0 C 31.601562 0 30.625 -0.40625 29.8125 -1.21875 L 14.859375 -16.171875 L 10.109375 -16.171875 L 10.109375 0 L 2.015625 0 L 2.015625 -40.421875 L 34.359375 -40.421875 C 35.835938 -40.421875 37.191406 -40.054688 38.421875 -39.328125 C 39.648438 -38.609375 40.628906 -37.632812 41.359375 -36.40625 C 42.085938 -35.175781 42.453125 -33.820312 42.453125 -32.34375 Z M 34.359375 -32.34375 L 10.109375 -32.34375 L 10.109375 -24.25 L 34.359375 -24.25 Z M 34.359375 -32.34375 "/></g></g></g><g fill="#fdfdfd" fill-opacity="1"><g transform="translate(312.964492, 205.943086)"><g><path d="M 42.453125 -40.421875 L 42.453125 -32.34375 L 10.109375 -32.34375 L 10.109375 -24.25 L 34.359375 -24.25 C 35.835938 -24.25 37.191406 -23.882812 38.421875 -23.15625 C 39.648438 -22.4375 40.628906 -21.460938 41.359375 -20.234375 C 42.085938 -19.003906 42.453125 -17.648438 42.453125 -16.171875 L 42.453125 -8.078125 C 42.453125 -6.597656 42.085938 -5.242188 41.359375 -4.015625 C 40.628906 -2.785156 39.648438 -1.804688 38.421875 -1.078125 C 37.191406 -0.359375 35.835938 0 34.359375 0 L 2.015625 0 L 2.015625 -8.078125 L 34.359375 -8.078125 L 34.359375 -16.171875 L 10.109375 -16.171875 C 8.628906 -16.171875 7.269531 -16.53125 6.03125 -17.25 C 4.800781 -17.976562 3.820312 -18.957031 3.09375 -20.1875 C 2.375 -21.414062 2.015625 -22.769531 2.015625 -24.25 L 2.015625 -32.34375 C 2.015625 -33.820312 2.375 -35.175781 3.09375 -36.40625 C 3.820312 -37.632812 4.800781 -38.609375 6.03125 -39.328125 C 7.269531 -40.054688 8.628906 -40.421875 10.109375 -40.421875 Z M 42.453125 -40.421875 "/></g></g></g></svg>