<svg xmlns="http://www.w3.org/2000/svg" xmlns:xlink="http://www.w3.org/1999/xlink" width="500" zoomAndPan="magnify" viewBox="0 0 375 374.999991" height="500" preserveAspectRatio="xMidYMid meet" version="1.0"><defs><g/><clipPath id="7063cab85d"><path d="M 28.125 134.71875 L 346.875 134.71875 L 346.875 142.5 L 28.125 142.5 Z M 28.125 134.71875 " clip-rule="nonzero"/></clipPath><clipPath id="db16594f5d"><path d="M 0.125 0.71875 L 318.875 0.71875 L 318.875 8.5 L 0.125 8.5 Z M 0.125 0.71875 " clip-rule="nonzero"/></clipPath><clipPath id="97d8d660d0"><rect x="0" width="319" y="0" height="9"/></clipPath><clipPath id="d24b5a3728"><path d="M 28.125 232.5 L 346.875 232.5 L 346.875 240 L 28.125 240 Z M 28.125 232.5 " clip-rule="nonzero"/></clipPath><clipPath id="83fa34a355"><path d="M 0.125 0.5 L 318.875 0.5 L 318.875 8 L 0.125 8 Z M 0.125 0.5 " clip-rule="nonzero"/></clipPath><clipPath id="d0d76ad23c"><rect x="0" width="319" y="0" height="8"/></clipPath><clipPath id="57a4e42603"><path d="M 33.402344 32.507812 L 331.5 32.507812 L 331.5 331.769531 L 33.402344 331.769531 Z M 33.402344 32.507812 " clip-rule="nonzero"/></clipPath><clipPath id="b104211df9"><path d="M 182.449219 32.507812 C 100.132812 32.507812 33.402344 99.429688 33.402344 181.980469 C 33.402344 264.535156 100.132812 331.457031 182.449219 331.457031 C 264.769531 331.457031 331.5 264.535156 331.5 181.980469 C 331.5 99.429688 264.769531 32.507812 182.449219 32.507812 Z M 182.449219 32.507812 " clip-rule="nonzero"/></clipPath><clipPath id="baf6bb0690"><path d="M 0.402344 0.507812 L 298.5 0.507812 L 298.5 299.679688 L 0.402344 299.679688 Z M 0.402344 0.507812 " clip-rule="nonzero"/></clipPath><clipPath id="8e788507e0"><path d="M 149.449219 0.507812 C 67.132812 0.507812 0.402344 67.429688 0.402344 149.980469 C 0.402344 232.535156 67.132812 299.457031 149.449219 299.457031 C 231.769531 299.457031 298.5 232.535156 298.5 149.980469 C 298.5 67.429688 231.769531 0.507812 149.449219 0.507812 Z M 149.449219 0.507812 " clip-rule="nonzero"/></clipPath><clipPath id="1f6915563f"><rect x="0" width="299" y="0" height="300"/></clipPath><clipPath id="28c4cbdee8"><path d="M 33.402344 32.507812 L 331.605469 32.507812 L 331.605469 331.589844 L 33.402344 331.589844 Z M 33.402344 32.507812 " clip-rule="nonzero"/></clipPath><clipPath id="ff76166895"><path d="M 182.449219 32.507812 C 100.132812 32.507812 33.402344 99.425781 33.402344 181.980469 C 33.402344 264.53125 100.132812 331.453125 182.449219 331.453125 C 264.765625 331.453125 331.496094 264.53125 331.496094 181.980469 C 331.496094 99.425781 264.765625 32.507812 182.449219 32.507812 Z M 182.449219 32.507812 " clip-rule="nonzero"/></clipPath><clipPath id="7255690ced"><path d="M 36.675781 36.914062 L 324.355469 36.914062 L 324.355469 325.464844 L 36.675781 325.464844 Z M 36.675781 36.914062 " clip-rule="nonzero"/></clipPath><clipPath id="1e84bd4152"><path d="M 180.542969 36.914062 C 101.085938 36.914062 36.675781 101.429688 36.675781 181.015625 C 36.675781 260.597656 101.085938 325.117188 180.542969 325.117188 C 260 325.117188 324.410156 260.597656 324.410156 181.015625 C 324.410156 101.429688 260 36.914062 180.542969 36.914062 Z M 180.542969 36.914062 " clip-rule="nonzero"/></clipPath><clipPath id="b1c668dcda"><path d="M 31.5 31.542969 L 329.707031 31.542969 L 329.707031 330.625 L 31.5 330.625 Z M 31.5 31.542969 " clip-rule="nonzero"/></clipPath><clipPath id="a63db0666f"><path d="M 180.546875 31.542969 C 98.230469 31.542969 31.5 98.464844 31.5 181.015625 C 31.5 263.566406 98.230469 330.488281 180.546875 330.488281 C 262.863281 330.488281 329.59375 263.566406 329.59375 181.015625 C 329.59375 98.464844 262.863281 31.542969 180.546875 31.542969 Z M 180.546875 31.542969 " clip-rule="nonzero"/></clipPath><clipPath id="ab587380c4"><rect x="0" width="365" y="0" height="364"/></clipPath><clipPath id="6e61e730a9"><path d="M 18.75 142.5 L 356.25 142.5 L 356.25 232.5 L 18.75 232.5 Z M 18.75 142.5 " clip-rule="nonzero"/></clipPath><clipPath id="2eb16ee9da"><path d="M 0.75 0.5 L 338.25 0.5 L 338.25 90.5 L 0.75 90.5 Z M 0.75 0.5 " clip-rule="nonzero"/></clipPath><clipPath id="6d50436c8d"><rect x="0" width="339" y="0" height="91"/></clipPath><clipPath id="0412349fea"><path d="M 0 0 L 375 0 L 375 75 L 0 75 Z M 0 0 " clip-rule="nonzero"/></clipPath><clipPath id="f297e73889"><rect x="0" width="375" y="0" height="75"/></clipPath><clipPath id="226264aa3b"><rect x="0" width="373" y="0" height="65"/></clipPath></defs><rect x="-37.5" width="450" fill="#ffffff" y="-37.499999" height="449.999989" fill-opacity="1"/><rect x="-37.5" width="450" fill="#1a1614" y="-37.499999" height="449.999989" fill-opacity="1"/><g clip-path="url(#7063cab85d)"><g transform="matrix(1, 0, 0, 1, 28, 134)"><g clip-path="url(#97d8d660d0)"><g clip-path="url(#db16594f5d)"><path fill="#e4277f" d="M 0.125 0.71875 L 318.875 0.71875 L 318.875 8.5 L 0.125 8.5 Z M 0.125 0.71875 " fill-opacity="1" fill-rule="nonzero"/></g></g></g></g><g clip-path="url(#d24b5a3728)"><g transform="matrix(1, 0, 0, 1, 28, 232)"><g clip-path="url(#d0d76ad23c)"><g clip-path="url(#83fa34a355)"><path fill="#e4277f" d="M 0.125 0.5 L 318.875 0.5 L 318.875 8 L 0.125 8 Z M 0.125 0.5 " fill-opacity="1" fill-rule="nonzero"/></g></g></g></g><g transform="matrix(1, 0, 0, 1, 6, 6)"><g clip-path="url(#ab587380c4)"><g clip-path="url(#57a4e42603)"><g clip-path="url(#b104211df9)"><g transform="matrix(1, 0, 0, 1, 33, 32)"><g clip-path="url(#1f6915563f)"><g clip-path="url(#baf6bb0690)"><g clip-path="url(#8e788507e0)"><path fill="#1a1614" d="M 0.402344 0.507812 L 298.5 0.507812 L 298.5 299.769531 L 0.402344 299.769531 Z M 0.402344 0.507812 " fill-opacity="1" fill-rule="nonzero"/></g></g></g></g></g></g><g clip-path="url(#28c4cbdee8)"><g clip-path="url(#ff76166895)"><path stroke-linecap="butt" transform="matrix(0.877075, 0, 0, 0.877075, 33.40194, 32.506023)" fill="none" stroke-linejoin="miter" d="M 169.936782 0.00204059 C 76.08344 0.00204059 0.000459798 76.2988 0.000459798 170.423819 C 0.000459798 264.544384 76.08344 340.845597 169.936782 340.845597 C 263.790124 340.845597 339.873104 264.544384 339.873104 170.423819 C 339.873104 76.2988 263.790124 0.00204059 169.936782 0.00204059 Z M 169.936782 0.00204059 " stroke="#e4277f" stroke-width="17.102301" stroke-opacity="1" stroke-miterlimit="4"/></g></g><g clip-path="url(#7255690ced)"><g clip-path="url(#1e84bd4152)"><path stroke-linecap="butt" transform="matrix(0.877075, 0, 0, 0.877075, 36.675222, 36.913137)" fill="none" stroke-linejoin="miter" d="M 164.031321 0.00105528 C 73.438106 0.00105528 0.000638158 73.558774 0.000638158 164.298962 C 0.000638158 255.034697 73.438106 328.596868 164.031321 328.596868 C 254.624537 328.596868 328.062004 255.034697 328.062004 164.298962 C 328.062004 73.558774 254.624537 0.00105528 164.031321 0.00105528 Z M 164.031321 0.00105528 " stroke="#fdfdfd" stroke-width="17.102301" stroke-opacity="1" stroke-miterlimit="4"/></g></g><path stroke-linecap="butt" transform="matrix(-0.00822444, 0.877036, -0.877036, -0.00822444, 132.723511, 76.287211)" fill="none" stroke-linejoin="miter" d="M 3.333102 57.411933 C 81.525511 -12.472891 159.714104 -12.471211 237.907744 57.412437 " stroke="#fdfdfd" stroke-width="10" stroke-opacity="1" stroke-miterlimit="4"/><path stroke-linecap="butt" transform="matrix(-0.00951894, -0.877023, 0.877023, -0.00951894, 236.686981, 284.685245)" fill="none" stroke-linejoin="miter" d="M 3.270748 53.791266 C 78.41632 -11.263147 153.559536 -11.262645 228.70485 53.792819 " stroke="#fdfdfd" stroke-width="10" stroke-opacity="1" stroke-miterlimit="4"/><path stroke-linecap="butt" transform="matrix(0.00000000153078, 0.877075, -0.877075, 0.00000000153078, 184.933674, 36.714669)" fill="none" stroke-linejoin="miter" d="M 0.000199558 5.001625 L 328.832087 5.001626 " stroke="#fdfdfd" stroke-width="10" stroke-opacity="1" stroke-miterlimit="4"/><path stroke-linecap="butt" transform="matrix(0.877075, 0.000000000000000076, -0.000000000000000076, 0.877075, 36.675222, 176.532732)" fill="none" stroke-linejoin="miter" d="M 0.000638158 4.999844 L 328.079846 4.999844 " stroke="#fdfdfd" stroke-width="10" stroke-opacity="1" stroke-miterlimit="4"/><g clip-path="url(#b1c668dcda)"><g clip-path="url(#a63db0666f)"><path stroke-linecap="butt" transform="matrix(0.877075, 0, 0, 0.877075, 31.501148, 31.542742)" fill="none" stroke-linejoin="miter" d="M 169.935013 0.000258787 C 76.081671 0.000258787 -0.00130921 76.301471 -0.00130921 170.422037 C -0.00130921 264.542602 76.081671 340.843815 169.935013 340.843815 C 263.788355 340.843815 339.871335 264.542602 339.871335 170.422037 C 339.871335 76.301471 263.788355 0.000258787 169.935013 0.000258787 Z M 169.935013 0.000258787 " stroke="#e4277f" stroke-width="17.102301" stroke-opacity="1" stroke-miterlimit="4"/></g></g></g></g><g clip-path="url(#6e61e730a9)"><g transform="matrix(1, 0, 0, 1, 18, 142)"><g clip-path="url(#6d50436c8d)"><g clip-path="url(#2eb16ee9da)"><path fill="#ffffff" d="M 0.75 0.5 L 338.25 0.5 L 338.25 90.5 L 0.75 90.5 Z M 0.75 0.5 " fill-opacity="1" fill-rule="nonzero"/></g></g></g><path stroke-linecap="butt" transform="matrix(0.75, 0, 0, 0.75, 18.750005, 142.499991)" fill="none" stroke-linejoin="miter" d="M -0.00000691833 0.0000124767 L 450.000023 0.0000124767 L 450.000023 120.00002 L -0.00000691833 120.00002 Z M -0.00000691833 0.0000124767 " stroke="#fdfdfd" stroke-width="20" stroke-opacity="1" stroke-miterlimit="4"/></g><g transform="matrix(1, 0, 0, 1, 0, 150)"><g clip-path="url(#f297e73889)"><g clip-path="url(#0412349fea)"><rect x="-82.5" width="540" fill="#1a1614" height="539.999987" y="-232.499998" fill-opacity="1"/></g></g></g><g transform="matrix(1, 0, 0, 1, 1, 155)"><g clip-path="url(#226264aa3b)"><g fill="#e4277f" fill-opacity="1"><g transform="translate(4.433543, 53.3899)"><g><path d="M 10.828125 4.398438 L -2.234375 4.398438 L -2.234375 -38.980469 C -2.234375 -40.160156 -2.015625 -41.277344 -1.578125 -42.324219 C -1.144531 -43.371094 -0.507812 -44.3125 0.328125 -45.148438 C 1.164062 -45.984375 2.101562 -46.617188 3.148438 -47.054688 C 4.199219 -47.488281 5.316406 -47.707031 6.496094 -47.707031 C 7.683594 -47.707031 8.808594 -47.484375 9.867188 -47.039062 C 10.910156 -46.597656 11.851562 -45.960938 12.691406 -45.121094 L 39.921875 -17.890625 L 36.8125 -14.78125 L 32.414062 -14.78125 L 32.414062 -47.707031 L 49.875 -47.707031 L 49.875 -4.332031 C 49.875 -3.148438 49.65625 -2.035156 49.21875 -0.984375 C 48.785156 0.0625 48.148438 1.003906 47.3125 1.839844 C 46.476562 2.671875 45.539062 3.308594 44.492188 3.742188 C 43.441406 4.179688 42.324219 4.398438 41.144531 4.398438 C 39.957031 4.398438 38.832031 4.175781 37.773438 3.730469 C 36.730469 3.289062 35.789062 2.652344 34.949219 1.8125 L 7.71875 -25.417969 L 10.828125 -28.53125 L 15.226562 -28.53125 L 15.226562 4.398438 Z M 10.828125 -4.398438 L 10.828125 0 L 6.429688 0 L 6.429688 -39.148438 L 41.167969 -4.410156 C 41.195312 -4.386719 41.210938 -4.367188 41.226562 -4.359375 C 41.21875 -4.363281 41.203125 -4.371094 41.1875 -4.378906 C 41.164062 -4.386719 41.144531 -4.394531 41.125 -4.398438 C 41.121094 -4.398438 41.117188 -4.398438 41.117188 -4.398438 C 41.125 -4.398438 41.132812 -4.398438 41.144531 -4.398438 C 41.164062 -4.398438 41.175781 -4.398438 41.175781 -4.398438 C 41.15625 -4.394531 41.136719 -4.390625 41.113281 -4.378906 C 41.089844 -4.371094 41.074219 -4.359375 41.058594 -4.351562 C 41.0625 -4.355469 41.074219 -4.367188 41.09375 -4.382812 C 41.109375 -4.398438 41.121094 -4.410156 41.125 -4.417969 C 41.113281 -4.402344 41.105469 -4.382812 41.09375 -4.363281 C 41.085938 -4.339844 41.078125 -4.316406 41.074219 -4.296875 C 41.074219 -4.300781 41.078125 -4.3125 41.078125 -4.332031 L 41.078125 -43.308594 L 45.476562 -43.308594 L 45.476562 -38.910156 L 36.8125 -38.910156 L 36.8125 -43.308594 L 41.210938 -43.308594 L 41.210938 -4.160156 L 6.472656 -38.898438 C 6.445312 -38.925781 6.429688 -38.941406 6.414062 -38.949219 C 6.421875 -38.945312 6.4375 -38.9375 6.453125 -38.929688 C 6.476562 -38.921875 6.496094 -38.914062 6.515625 -38.910156 C 6.519531 -38.910156 6.523438 -38.910156 6.523438 -38.910156 C 6.515625 -38.910156 6.507812 -38.910156 6.496094 -38.910156 C 6.476562 -38.910156 6.464844 -38.910156 6.464844 -38.910156 C 6.484375 -38.914062 6.503906 -38.921875 6.527344 -38.929688 C 6.550781 -38.9375 6.566406 -38.949219 6.582031 -38.957031 C 6.578125 -38.953125 6.566406 -38.945312 6.546875 -38.925781 C 6.53125 -38.910156 6.519531 -38.898438 6.515625 -38.894531 C 6.527344 -38.90625 6.535156 -38.925781 6.546875 -38.945312 C 6.554688 -38.96875 6.5625 -38.992188 6.566406 -39.011719 C 6.566406 -39.007812 6.5625 -38.996094 6.5625 -38.980469 L 6.5625 0 L 2.164062 0 L 2.164062 -4.398438 Z M 10.828125 -4.398438 "/></g></g></g><g fill="#e4277f" fill-opacity="1"><g transform="translate(53.045001, 53.3899)"><g><path d="M 36.8125 4.398438 L 10.828125 4.398438 C 8.441406 4.398438 6.242188 3.808594 4.238281 2.625 C 2.265625 1.464844 0.699219 -0.101562 -0.460938 -2.070312 C -1.640625 -4.078125 -2.234375 -6.273438 -2.234375 -8.660156 L -2.234375 -21.722656 L 15.226562 -21.722656 L 15.226562 -8.660156 L 10.828125 -8.660156 L 10.828125 -13.0625 L 36.8125 -13.0625 L 36.8125 -8.660156 L 32.414062 -8.660156 L 32.414062 -34.648438 L 36.8125 -34.648438 L 36.8125 -30.25 L 15.089844 -30.25 L 15.089844 -47.707031 L 49.875 -47.707031 L 49.875 -8.660156 C 49.875 -6.308594 49.28125 -4.132812 48.101562 -2.125 C 46.953125 -0.175781 45.417969 1.386719 43.492188 2.5625 C 41.488281 3.785156 39.261719 4.398438 36.8125 4.398438 Z M 36.8125 -4.398438 C 37.613281 -4.398438 38.308594 -4.582031 38.90625 -4.945312 C 39.578125 -5.355469 40.117188 -5.90625 40.519531 -6.589844 C 40.890625 -7.21875 41.078125 -7.910156 41.078125 -8.660156 L 41.078125 -43.308594 L 45.476562 -43.308594 L 45.476562 -38.910156 L 19.488281 -38.910156 L 19.488281 -43.308594 L 23.886719 -43.308594 L 23.886719 -34.648438 L 19.488281 -34.648438 L 19.488281 -39.046875 L 41.210938 -39.046875 L 41.210938 -4.261719 L 6.429688 -4.261719 L 6.429688 -17.324219 L 10.828125 -17.324219 L 10.828125 -12.925781 L 2.164062 -12.925781 L 2.164062 -17.324219 L 6.5625 -17.324219 L 6.5625 -8.660156 C 6.5625 -7.875 6.75 -7.164062 7.121094 -6.535156 C 7.511719 -5.871094 8.039062 -5.34375 8.703125 -4.953125 C 9.332031 -4.582031 10.039062 -4.398438 10.828125 -4.398438 Z M 36.8125 -4.398438 "/></g></g></g><g fill="#e4277f" fill-opacity="1"><g transform="translate(101.656458, 53.3899)"><g/></g></g><g fill="#e4277f" fill-opacity="1"><g transform="translate(126.44944, 53.3899)"><g><path d="M 49.875 -43.308594 L 49.875 -30.25 L 10.828125 -30.25 L 10.828125 -34.648438 L 15.226562 -34.648438 L 15.226562 -25.984375 L 10.828125 -25.984375 L 10.828125 -30.382812 L 36.8125 -30.382812 C 39.199219 -30.382812 41.398438 -29.792969 43.402344 -28.613281 C 45.375 -27.449219 46.941406 -25.886719 48.101562 -23.914062 C 49.28125 -21.910156 49.875 -19.710938 49.875 -17.324219 L 49.875 -8.660156 C 49.875 -6.273438 49.28125 -4.078125 48.101562 -2.070312 C 46.941406 -0.101562 45.375 1.464844 43.402344 2.625 C 41.398438 3.808594 39.199219 4.398438 36.8125 4.398438 L -2.234375 4.398438 L -2.234375 -13.0625 L 36.8125 -13.0625 L 36.8125 -8.660156 L 32.414062 -8.660156 L 32.414062 -17.324219 L 36.8125 -17.324219 L 36.8125 -12.925781 L 10.828125 -12.925781 C 8.441406 -12.925781 6.242188 -13.515625 4.238281 -14.699219 C 2.265625 -15.859375 0.699219 -17.425781 -0.460938 -19.394531 C -1.640625 -21.402344 -2.234375 -23.597656 -2.234375 -25.984375 L -2.234375 -34.648438 C -2.234375 -37.035156 -1.640625 -39.230469 -0.460938 -41.238281 C 0.699219 -43.210938 2.265625 -44.773438 4.238281 -45.9375 C 6.242188 -47.117188 8.441406 -47.707031 10.828125 -47.707031 L 49.875 -47.707031 Z M 41.078125 -43.308594 L 45.476562 -43.308594 L 45.476562 -38.910156 L 10.828125 -38.910156 C 10.039062 -38.910156 9.332031 -38.726562 8.703125 -38.355469 C 8.039062 -37.964844 7.511719 -37.4375 7.121094 -36.773438 C 6.75 -36.144531 6.5625 -35.4375 6.5625 -34.648438 L 6.5625 -25.984375 C 6.5625 -25.195312 6.75 -24.488281 7.121094 -23.859375 C 7.511719 -23.195312 8.039062 -22.667969 8.703125 -22.277344 C 9.332031 -21.90625 10.039062 -21.722656 10.828125 -21.722656 L 41.210938 -21.722656 L 41.210938 -4.261719 L 2.164062 -4.261719 L 2.164062 -8.660156 L 6.5625 -8.660156 L 6.5625 0 L 2.164062 0 L 2.164062 -4.398438 L 36.8125 -4.398438 C 37.601562 -4.398438 38.308594 -4.582031 38.9375 -4.953125 C 39.601562 -5.34375 40.128906 -5.871094 40.519531 -6.535156 C 40.890625 -7.164062 41.078125 -7.875 41.078125 -8.660156 L 41.078125 -17.324219 C 41.078125 -18.113281 40.890625 -18.820312 40.519531 -19.449219 C 40.128906 -20.113281 39.601562 -20.640625 38.9375 -21.03125 C 38.308594 -21.402344 37.601562 -21.585938 36.8125 -21.585938 L 6.429688 -21.585938 L 6.429688 -39.046875 L 45.476562 -39.046875 L 45.476562 -34.648438 L 41.078125 -34.648438 Z M 41.078125 -43.308594 "/></g></g></g><g fill="#e4277f" fill-opacity="1"><g transform="translate(175.060897, 53.3899)"><g><path d="M 49.875 -43.308594 L 49.875 -30.25 L 28.152344 -30.25 L 28.152344 -34.648438 L 32.550781 -34.648438 L 32.550781 4.398438 L 15.089844 4.398438 L 15.089844 -34.648438 L 19.488281 -34.648438 L 19.488281 -30.25 L -2.234375 -30.25 L -2.234375 -47.707031 L 49.875 -47.707031 Z M 41.078125 -43.308594 L 45.476562 -43.308594 L 45.476562 -38.910156 L 2.164062 -38.910156 L 2.164062 -43.308594 L 6.5625 -43.308594 L 6.5625 -34.648438 L 2.164062 -34.648438 L 2.164062 -39.046875 L 23.886719 -39.046875 L 23.886719 0 L 19.488281 0 L 19.488281 -4.398438 L 28.152344 -4.398438 L 28.152344 0 L 23.753906 0 L 23.753906 -39.046875 L 45.476562 -39.046875 L 45.476562 -34.648438 L 41.078125 -34.648438 Z M 41.078125 -43.308594 "/></g></g></g><g fill="#e4277f" fill-opacity="1"><g transform="translate(223.672343, 53.3899)"><g><path d="M 10.828125 -47.707031 L 36.8125 -47.707031 C 39.199219 -47.707031 41.398438 -47.117188 43.402344 -45.9375 C 45.375 -44.773438 46.941406 -43.210938 48.101562 -41.238281 C 49.28125 -39.230469 49.875 -37.035156 49.875 -34.648438 L 49.875 4.398438 L 32.414062 4.398438 L 32.414062 -17.324219 L 36.8125 -17.324219 L 36.8125 -12.925781 L 10.828125 -12.925781 L 10.828125 -17.324219 L 15.226562 -17.324219 L 15.226562 4.398438 L -2.234375 4.398438 L -2.234375 -34.648438 C -2.234375 -37.035156 -1.640625 -39.230469 -0.460938 -41.238281 C 0.699219 -43.210938 2.265625 -44.773438 4.238281 -45.9375 C 6.242188 -47.117188 8.441406 -47.707031 10.828125 -47.707031 Z M 10.828125 -38.910156 C 10.039062 -38.910156 9.332031 -38.726562 8.703125 -38.355469 C 8.039062 -37.964844 7.511719 -37.4375 7.121094 -36.773438 C 6.75 -36.144531 6.5625 -35.4375 6.5625 -34.648438 L 6.5625 0 L 2.164062 0 L 2.164062 -4.398438 L 10.828125 -4.398438 L 10.828125 0 L 6.429688 0 L 6.429688 -21.722656 L 41.210938 -21.722656 L 41.210938 0 L 36.8125 0 L 36.8125 -4.398438 L 45.476562 -4.398438 L 45.476562 0 L 41.078125 0 L 41.078125 -34.648438 C 41.078125 -35.4375 40.890625 -36.144531 40.519531 -36.773438 C 40.128906 -37.4375 39.601562 -37.964844 38.9375 -38.355469 C 38.308594 -38.726562 37.601562 -38.910156 36.8125 -38.910156 Z M 15.226562 -34.648438 L 15.226562 -25.984375 L 10.828125 -25.984375 L 10.828125 -30.382812 L 36.8125 -30.382812 L 36.8125 -25.984375 L 32.414062 -25.984375 L 32.414062 -34.648438 L 36.8125 -34.648438 L 36.8125 -30.25 L 10.828125 -30.25 L 10.828125 -34.648438 Z M 6.429688 -39.046875 L 41.210938 -39.046875 L 41.210938 -21.585938 L 6.429688 -21.585938 Z M 6.429688 -39.046875 "/></g></g></g><g fill="#e4277f" fill-opacity="1"><g transform="translate(272.283825, 53.3899)"><g><path d="M 49.875 -34.648438 L 49.875 -25.984375 C 49.875 -23.597656 49.28125 -21.402344 48.101562 -19.394531 C 46.941406 -17.425781 45.375 -15.859375 43.402344 -14.699219 C 41.398438 -13.515625 39.199219 -12.925781 36.8125 -12.925781 L 28.152344 -12.925781 L 28.152344 -17.324219 L 31.261719 -20.433594 L 39.921875 -11.773438 L 36.8125 -8.660156 L 36.8125 -13.0625 L 49.875 -13.0625 L 49.875 4.398438 L 35.082031 4.398438 C 33.882812 4.398438 32.753906 4.179688 31.695312 3.738281 C 30.628906 3.300781 29.675781 2.65625 28.832031 1.8125 L 12.804688 -14.214844 L 15.917969 -17.324219 L 15.917969 -12.925781 L 10.828125 -12.925781 L 10.828125 -17.324219 L 15.226562 -17.324219 L 15.226562 4.398438 L -2.234375 4.398438 L -2.234375 -47.707031 L 36.8125 -47.707031 C 39.199219 -47.707031 41.398438 -47.117188 43.402344 -45.9375 C 45.375 -44.773438 46.941406 -43.210938 48.101562 -41.238281 C 49.28125 -39.230469 49.875 -37.035156 49.875 -34.648438 Z M 41.078125 -34.648438 C 41.078125 -35.4375 40.890625 -36.144531 40.519531 -36.773438 C 40.128906 -37.4375 39.601562 -37.964844 38.9375 -38.355469 C 38.308594 -38.726562 37.601562 -38.910156 36.8125 -38.910156 L 2.164062 -38.910156 L 2.164062 -43.308594 L 6.5625 -43.308594 L 6.5625 0 L 2.164062 0 L 2.164062 -4.398438 L 10.828125 -4.398438 L 10.828125 0 L 6.429688 0 L 6.429688 -21.722656 L 17.738281 -21.722656 L 35.050781 -4.410156 C 35.070312 -4.390625 35.085938 -4.375 35.097656 -4.371094 C 35.085938 -4.375 35.074219 -4.382812 35.058594 -4.390625 C 35.042969 -4.394531 35.027344 -4.398438 35.015625 -4.402344 C 35.03125 -4.398438 35.050781 -4.398438 35.082031 -4.398438 L 45.476562 -4.398438 L 45.476562 0 L 41.078125 0 L 41.078125 -8.660156 L 45.476562 -8.660156 L 45.476562 -4.261719 L 34.992188 -4.261719 L 17.53125 -21.722656 L 36.8125 -21.722656 C 37.601562 -21.722656 38.308594 -21.90625 38.9375 -22.277344 C 39.601562 -22.667969 40.128906 -23.195312 40.519531 -23.859375 C 40.890625 -24.488281 41.078125 -25.195312 41.078125 -25.984375 Z M 36.8125 -30.25 L 10.828125 -30.25 L 10.828125 -34.648438 L 15.226562 -34.648438 L 15.226562 -25.984375 L 10.828125 -25.984375 L 10.828125 -30.382812 L 36.8125 -30.382812 L 36.8125 -25.984375 L 32.414062 -25.984375 L 32.414062 -34.648438 L 36.8125 -34.648438 Z M 41.210938 -39.046875 L 41.210938 -21.585938 L 6.429688 -21.585938 L 6.429688 -39.046875 Z M 41.210938 -39.046875 "/></g></g></g><g fill="#e4277f" fill-opacity="1"><g transform="translate(320.895258, 53.3899)"><g><path d="M 49.875 -43.308594 L 49.875 -30.25 L 10.828125 -30.25 L 10.828125 -34.648438 L 15.226562 -34.648438 L 15.226562 -25.984375 L 10.828125 -25.984375 L 10.828125 -30.382812 L 36.8125 -30.382812 C 39.199219 -30.382812 41.398438 -29.792969 43.402344 -28.613281 C 45.375 -27.449219 46.941406 -25.886719 48.101562 -23.914062 C 49.28125 -21.910156 49.875 -19.710938 49.875 -17.324219 L 49.875 -8.660156 C 49.875 -6.273438 49.28125 -4.078125 48.101562 -2.070312 C 46.941406 -0.101562 45.375 1.464844 43.402344 2.625 C 41.398438 3.808594 39.199219 4.398438 36.8125 4.398438 L -2.234375 4.398438 L -2.234375 -13.0625 L 36.8125 -13.0625 L 36.8125 -8.660156 L 32.414062 -8.660156 L 32.414062 -17.324219 L 36.8125 -17.324219 L 36.8125 -12.925781 L 10.828125 -12.925781 C 8.441406 -12.925781 6.242188 -13.515625 4.238281 -14.699219 C 2.265625 -15.859375 0.699219 -17.425781 -0.460938 -19.394531 C -1.640625 -21.402344 -2.234375 -23.597656 -2.234375 -25.984375 L -2.234375 -34.648438 C -2.234375 -37.035156 -1.640625 -39.230469 -0.460938 -41.238281 C 0.699219 -43.210938 2.265625 -44.773438 4.238281 -45.9375 C 6.242188 -47.117188 8.441406 -47.707031 10.828125 -47.707031 L 49.875 -47.707031 Z M 41.078125 -43.308594 L 45.476562 -43.308594 L 45.476562 -38.910156 L 10.828125 -38.910156 C 10.039062 -38.910156 9.332031 -38.726562 8.703125 -38.355469 C 8.039062 -37.964844 7.511719 -37.4375 7.121094 -36.773438 C 6.75 -36.144531 6.5625 -35.4375 6.5625 -34.648438 L 6.5625 -25.984375 C 6.5625 -25.195312 6.75 -24.488281 7.121094 -23.859375 C 7.511719 -23.195312 8.039062 -22.667969 8.703125 -22.277344 C 9.332031 -21.90625 10.039062 -21.722656 10.828125 -21.722656 L 41.210938 -21.722656 L 41.210938 -4.261719 L 2.164062 -4.261719 L 2.164062 -8.660156 L 6.5625 -8.660156 L 6.5625 0 L 2.164062 0 L 2.164062 -4.398438 L 36.8125 -4.398438 C 37.601562 -4.398438 38.308594 -4.582031 38.9375 -4.953125 C 39.601562 -5.34375 40.128906 -5.871094 40.519531 -6.535156 C 40.890625 -7.164062 41.078125 -7.875 41.078125 -8.660156 L 41.078125 -17.324219 C 41.078125 -18.113281 40.890625 -18.820312 40.519531 -19.449219 C 40.128906 -20.113281 39.601562 -20.640625 38.9375 -21.03125 C 38.308594 -21.402344 37.601562 -21.585938 36.8125 -21.585938 L 6.429688 -21.585938 L 6.429688 -39.046875 L 45.476562 -39.046875 L 45.476562 -34.648438 L 41.078125 -34.648438 Z M 41.078125 -43.308594 "/></g></g></g><g fill="#fdfdfd" fill-opacity="1"><g transform="translate(4.433543, 53.3899)"><g><path d="M 10.828125 0 L 2.171875 0 L 2.171875 -38.984375 C 2.171875 -40.171875 2.59375 -41.1875 3.4375 -42.03125 C 4.28125 -42.882812 5.300781 -43.3125 6.5 -43.3125 C 7.6875 -43.3125 8.710938 -42.878906 9.578125 -42.015625 L 36.8125 -14.78125 L 36.8125 -43.3125 L 45.484375 -43.3125 L 45.484375 -4.328125 C 45.484375 -3.140625 45.054688 -2.117188 44.203125 -1.265625 C 43.359375 -0.421875 42.335938 0 41.140625 0 C 39.953125 0 38.925781 -0.429688 38.0625 -1.296875 L 10.828125 -28.53125 Z M 10.828125 0 "/></g></g></g><g fill="#fdfdfd" fill-opacity="1"><g transform="translate(53.045001, 53.3899)"><g><path d="M 36.8125 0 L 10.828125 0 C 9.242188 0 7.789062 -0.382812 6.46875 -1.15625 C 5.15625 -1.9375 4.109375 -2.984375 3.328125 -4.296875 C 2.554688 -5.617188 2.171875 -7.070312 2.171875 -8.65625 L 2.171875 -17.328125 L 10.828125 -17.328125 L 10.828125 -8.65625 L 36.8125 -8.65625 L 36.8125 -34.65625 L 19.484375 -34.65625 L 19.484375 -43.3125 L 45.484375 -43.3125 L 45.484375 -8.65625 C 45.484375 -7.101562 45.09375 -5.664062 44.3125 -4.34375 C 43.539062 -3.03125 42.503906 -1.976562 41.203125 -1.1875 C 39.898438 -0.394531 38.4375 0 36.8125 0 Z M 36.8125 0 "/></g></g></g><g fill="#fdfdfd" fill-opacity="1"><g transform="translate(101.656458, 53.3899)"><g/></g></g><g fill="#fdfdfd" fill-opacity="1"><g transform="translate(126.44944, 53.3899)"><g><path d="M 45.484375 -43.3125 L 45.484375 -34.65625 L 10.828125 -34.65625 L 10.828125 -25.984375 L 36.8125 -25.984375 C 38.40625 -25.984375 39.859375 -25.59375 41.171875 -24.8125 C 42.492188 -24.039062 43.539062 -22.992188 44.3125 -21.671875 C 45.09375 -20.359375 45.484375 -18.910156 45.484375 -17.328125 L 45.484375 -8.65625 C 45.484375 -7.070312 45.09375 -5.617188 44.3125 -4.296875 C 43.539062 -2.984375 42.492188 -1.9375 41.171875 -1.15625 C 39.859375 -0.382812 38.40625 0 36.8125 0 L 2.171875 0 L 2.171875 -8.65625 L 36.8125 -8.65625 L 36.8125 -17.328125 L 10.828125 -17.328125 C 9.242188 -17.328125 7.789062 -17.710938 6.46875 -18.484375 C 5.15625 -19.265625 4.109375 -20.3125 3.328125 -21.625 C 2.554688 -22.945312 2.171875 -24.398438 2.171875 -25.984375 L 2.171875 -34.65625 C 2.171875 -36.238281 2.554688 -37.6875 3.328125 -39 C 4.109375 -40.320312 5.15625 -41.367188 6.46875 -42.140625 C 7.789062 -42.921875 9.242188 -43.3125 10.828125 -43.3125 Z M 45.484375 -43.3125 "/></g></g></g><g fill="#fdfdfd" fill-opacity="1"><g transform="translate(175.060897, 53.3899)"><g><path d="M 45.484375 -43.3125 L 45.484375 -34.65625 L 28.15625 -34.65625 L 28.15625 0 L 19.484375 0 L 19.484375 -34.65625 L 2.171875 -34.65625 L 2.171875 -43.3125 Z M 45.484375 -43.3125 "/></g></g></g><g fill="#fdfdfd" fill-opacity="1"><g transform="translate(223.672343, 53.3899)"><g><path d="M 10.828125 -43.3125 L 36.8125 -43.3125 C 38.40625 -43.3125 39.859375 -42.921875 41.171875 -42.140625 C 42.492188 -41.367188 43.539062 -40.320312 44.3125 -39 C 45.09375 -37.6875 45.484375 -36.238281 45.484375 -34.65625 L 45.484375 0 L 36.8125 0 L 36.8125 -17.328125 L 10.828125 -17.328125 L 10.828125 0 L 2.171875 0 L 2.171875 -34.65625 C 2.171875 -36.238281 2.554688 -37.6875 3.328125 -39 C 4.109375 -40.320312 5.15625 -41.367188 6.46875 -42.140625 C 7.789062 -42.921875 9.242188 -43.3125 10.828125 -43.3125 Z M 10.828125 -34.65625 L 10.828125 -25.984375 L 36.8125 -25.984375 L 36.8125 -34.65625 Z M 10.828125 -34.65625 "/></g></g></g><g fill="#fdfdfd" fill-opacity="1"><g transform="translate(272.283825, 53.3899)"><g><path d="M 45.484375 -34.65625 L 45.484375 -25.984375 C 45.484375 -24.398438 45.09375 -22.945312 44.3125 -21.625 C 43.539062 -20.3125 42.492188 -19.265625 41.171875 -18.484375 C 39.859375 -17.710938 38.40625 -17.328125 36.8125 -17.328125 L 28.15625 -17.328125 L 36.8125 -8.65625 L 45.484375 -8.65625 L 45.484375 0 L 35.078125 0 C 33.859375 0 32.8125 -0.429688 31.9375 -1.296875 L 15.921875 -17.328125 L 10.828125 -17.328125 L 10.828125 0 L 2.171875 0 L 2.171875 -43.3125 L 36.8125 -43.3125 C 38.40625 -43.3125 39.859375 -42.921875 41.171875 -42.140625 C 42.492188 -41.367188 43.539062 -40.320312 44.3125 -39 C 45.09375 -37.6875 45.484375 -36.238281 45.484375 -34.65625 Z M 36.8125 -34.65625 L 10.828125 -34.65625 L 10.828125 -25.984375 L 36.8125 -25.984375 Z M 36.8125 -34.65625 "/></g></g></g><g fill="#fdfdfd" fill-opacity="1"><g transform="translate(320.895258, 53.3899)"><g><path d="M 45.484375 -43.3125 L 45.484375 -34.65625 L 10.828125 -34.65625 L 10.828125 -25.984375 L 36.8125 -25.984375 C 38.40625 -25.984375 39.859375 -25.59375 41.171875 -24.8125 C 42.492188 -24.039062 43.539062 -22.992188 44.3125 -21.671875 C 45.09375 -20.359375 45.484375 -18.910156 45.484375 -17.328125 L 45.484375 -8.65625 C 45.484375 -7.070312 45.09375 -5.617188 44.3125 -4.296875 C 43.539062 -2.984375 42.492188 -1.9375 41.171875 -1.15625 C 39.859375 -0.382812 38.40625 0 36.8125 0 L 2.171875 0 L 2.171875 -8.65625 L 36.8125 -8.65625 L 36.8125 -17.328125 L 10.828125 -17.328125 C 9.242188 -17.328125 7.789062 -17.710938 6.46875 -18.484375 C 5.15625 -19.265625 4.109375 -20.3125 3.328125 -21.625 C 2.554688 -22.945312 2.171875 -24.398438 2.171875 -25.984375 L 2.171875 -34.65625 C 2.171875 -36.238281 2.554688 -37.6875 3.328125 -39 C 4.109375 -40.320312 5.15625 -41.367188 6.46875 -42.140625 C 7.789062 -42.921875 9.242188 -43.3125 10.828125 -43.3125 Z M 45.484375 -43.3125 "/></g></g></g></g></g></svg>