<svg xmlns="http://www.w3.org/2000/svg" xmlns:xlink="http://www.w3.org/1999/xlink" width="500" zoomAndPan="magnify" viewBox="0 0 375 374.999991" height="500" preserveAspectRatio="xMidYMid meet" version="1.0"><defs><g/><clipPath id="a7807c553d"><path d="M 9.722656 127.5 L 365.503906 127.5 L 365.503906 247.5 L 9.722656 247.5 Z M 9.722656 127.5 " clip-rule="nonzero"/></clipPath><clipPath id="50ef7f9bda"><path d="M 17.222656 127.5 L 357.777344 127.5 C 361.917969 127.5 365.277344 130.859375 365.277344 135 L 365.277344 240 C 365.277344 244.140625 361.917969 247.5 357.777344 247.5 L 17.222656 247.5 C 13.082031 247.5 9.722656 244.140625 9.722656 240 L 9.722656 135 C 9.722656 130.859375 13.082031 127.5 17.222656 127.5 Z M 17.222656 127.5 " clip-rule="nonzero"/></clipPath><clipPath id="ba76c78648"><path d="M 0.722656 0.5 L 356.28125 0.5 L 356.28125 120.5 L 0.722656 120.5 Z M 0.722656 0.5 " clip-rule="nonzero"/></clipPath><clipPath id="9376c0686e"><path d="M 8.222656 0.5 L 348.777344 0.5 C 352.917969 0.5 356.277344 3.859375 356.277344 8 L 356.277344 113 C 356.277344 117.140625 352.917969 120.5 348.777344 120.5 L 8.222656 120.5 C 4.082031 120.5 0.722656 117.140625 0.722656 113 L 0.722656 8 C 0.722656 3.859375 4.082031 0.5 8.222656 0.5 Z M 8.222656 0.5 " clip-rule="nonzero"/></clipPath><clipPath id="0b755d8a6d"><rect x="0" width="357" y="0" height="121"/></clipPath><clipPath id="8f335e0a63"><path d="M 45 44.824219 L 330 44.824219 L 330 330.9375 L 45 330.9375 Z M 45 44.824219 " clip-rule="nonzero"/></clipPath><clipPath id="9cd0730280"><path d="M 187.5 44.824219 C 108.800781 44.824219 45 108.703125 45 187.5 C 45 266.296875 108.800781 330.175781 187.5 330.175781 C 266.199219 330.175781 330 266.296875 330 187.5 C 330 108.703125 266.199219 44.824219 187.5 44.824219 Z M 187.5 44.824219 " clip-rule="nonzero"/></clipPath><clipPath id="87fd2248fd"><path d="M 0 0.824219 L 285 0.824219 L 285 286 L 0 286 Z M 0 0.824219 " clip-rule="nonzero"/></clipPath><clipPath id="d0ab24be80"><path d="M 142.5 0.824219 C 63.800781 0.824219 0 64.703125 0 143.5 C 0 222.296875 63.800781 286.175781 142.5 286.175781 C 221.199219 286.175781 285 222.296875 285 143.5 C 285 64.703125 221.199219 0.824219 142.5 0.824219 Z M 142.5 0.824219 " clip-rule="nonzero"/></clipPath><clipPath id="485aaa0487"><rect x="0" width="285" y="0" height="287"/></clipPath><clipPath id="35b4082829"><path d="M 45.003906 44.824219 L 330 44.824219 L 330 329.824219 L 45.003906 329.824219 Z M 45.003906 44.824219 " clip-rule="nonzero"/></clipPath><clipPath id="b23f93a9b7"><path d="M 187.5 44.824219 C 108.800781 44.824219 45.003906 108.699219 45.003906 187.496094 C 45.003906 266.289062 108.800781 330.164062 187.5 330.164062 C 266.199219 330.164062 329.996094 266.289062 329.996094 187.496094 C 329.996094 108.699219 266.199219 44.824219 187.5 44.824219 Z M 187.5 44.824219 " clip-rule="nonzero"/></clipPath><clipPath id="30251976a8"><path d="M 28.472656 138.75 L 346.472656 138.75 L 346.472656 236.25 L 28.472656 236.25 Z M 28.472656 138.75 " clip-rule="nonzero"/></clipPath><clipPath id="d2bd981fac"><path d="M 61.671875 60.710938 L 316.578125 60.710938 L 316.578125 316 L 61.671875 316 Z M 61.671875 60.710938 " clip-rule="nonzero"/></clipPath><clipPath id="fffb938360"><path d="M 189.125 60.710938 C 118.734375 60.710938 61.671875 117.84375 61.671875 188.320312 C 61.671875 258.800781 118.734375 315.933594 189.125 315.933594 C 259.515625 315.933594 316.578125 258.800781 316.578125 188.320312 C 316.578125 117.84375 259.515625 60.710938 189.125 60.710938 Z M 189.125 60.710938 " clip-rule="nonzero"/></clipPath><clipPath id="c7911f7a93"><path d="M 0.671875 0.710938 L 255.578125 0.710938 L 255.578125 256 L 0.671875 256 Z M 0.671875 0.710938 " clip-rule="nonzero"/></clipPath><clipPath id="951e652dfc"><path d="M 128.125 0.710938 C 57.734375 0.710938 0.671875 57.84375 0.671875 128.320312 C 0.671875 198.800781 57.734375 255.933594 128.125 255.933594 C 198.515625 255.933594 255.578125 198.800781 255.578125 128.320312 C 255.578125 57.84375 198.515625 0.710938 128.125 0.710938 Z M 128.125 0.710938 " clip-rule="nonzero"/></clipPath><clipPath id="975f5ad05a"><rect x="0" width="256" y="0" height="256"/></clipPath><clipPath id="a1af77343d"><path d="M 61.671875 60.710938 L 316.671875 60.710938 L 316.671875 315.710938 L 61.671875 315.710938 Z M 61.671875 60.710938 " clip-rule="nonzero"/></clipPath><clipPath id="bc41a4942d"><path d="M 189.125 60.710938 C 118.734375 60.710938 61.671875 117.84375 61.671875 188.320312 C 61.671875 258.796875 118.734375 315.933594 189.125 315.933594 C 259.515625 315.933594 316.578125 258.796875 316.578125 188.320312 C 316.578125 117.84375 259.515625 60.710938 189.125 60.710938 Z M 189.125 60.710938 " clip-rule="nonzero"/></clipPath><clipPath id="a07b98b422"><path d="M 64.472656 64.472656 L 310.472656 64.472656 L 310.472656 310.472656 L 64.472656 310.472656 Z M 64.472656 64.472656 " clip-rule="nonzero"/></clipPath><clipPath id="6b837a80b8"><path d="M 187.496094 64.472656 C 119.550781 64.472656 64.472656 119.550781 64.472656 187.496094 C 64.472656 255.4375 119.550781 310.519531 187.496094 310.519531 C 255.4375 310.519531 310.519531 255.4375 310.519531 187.496094 C 310.519531 119.550781 255.4375 64.472656 187.496094 64.472656 Z M 187.496094 64.472656 " clip-rule="nonzero"/></clipPath><clipPath id="16f21dbff9"><path d="M 60.046875 59.890625 L 315 59.890625 L 315 314.886719 L 60.046875 314.886719 Z M 60.046875 59.890625 " clip-rule="nonzero"/></clipPath><clipPath id="36e8fd63f1"><path d="M 187.5 59.890625 C 117.109375 59.890625 60.046875 117.023438 60.046875 187.5 C 60.046875 257.976562 117.109375 315.109375 187.5 315.109375 C 257.890625 315.109375 314.953125 257.976562 314.953125 187.5 C 314.953125 117.023438 257.890625 59.890625 187.5 59.890625 Z M 187.5 59.890625 " clip-rule="nonzero"/></clipPath><clipPath id="cffc96fc28"><path d="M 28.472656 144.75 L 346.527344 144.75 L 346.527344 230.25 L 28.472656 230.25 Z M 28.472656 144.75 " clip-rule="nonzero"/></clipPath><clipPath id="565d732d21"><path d="M 0.472656 0.75 L 318.527344 0.75 L 318.527344 86.25 L 0.472656 86.25 Z M 0.472656 0.75 " clip-rule="nonzero"/></clipPath><clipPath id="6aa76dec03"><rect x="0" width="319" y="0" height="87"/></clipPath><clipPath id="1755da6c98"><path d="M 28.472656 144.75 L 346.472656 144.75 L 346.472656 230.25 L 28.472656 230.25 Z M 28.472656 144.75 " clip-rule="nonzero"/></clipPath><clipPath id="e8dc058c2d"><path d="M 10 150.75 L 365.554688 150.75 L 365.554688 224.25 L 10 224.25 Z M 10 150.75 " clip-rule="nonzero"/></clipPath><clipPath id="ba9a93fbc7"><path d="M 0 0.75 L 355.554688 0.75 L 355.554688 74.25 L 0 74.25 Z M 0 0.75 " clip-rule="nonzero"/></clipPath><clipPath id="db4cfae00d"><rect x="0" width="356" y="0" height="75"/></clipPath></defs><g clip-path="url(#a7807c553d)"><g clip-path="url(#50ef7f9bda)"><g transform="matrix(1, 0, 0, 1, 9, 127)"><g clip-path="url(#0b755d8a6d)"><g clip-path="url(#ba76c78648)"><g clip-path="url(#9376c0686e)"><path fill="#000000" d="M 0.722656 0.5 L 356.503906 0.5 L 356.503906 120.5 L 0.722656 120.5 Z M 0.722656 0.5 " fill-opacity="1" fill-rule="nonzero"/></g></g></g></g></g></g><g clip-path="url(#8f335e0a63)"><g clip-path="url(#9cd0730280)"><g transform="matrix(1, 0, 0, 1, 45, 44)"><g clip-path="url(#485aaa0487)"><g clip-path="url(#87fd2248fd)"><g clip-path="url(#d0ab24be80)"><path fill="#000000" d="M 0 0.824219 L 285 0.824219 L 285 285.824219 L 0 285.824219 Z M 0 0.824219 " fill-opacity="1" fill-rule="nonzero"/></g></g></g></g></g></g><g clip-path="url(#35b4082829)"><g clip-path="url(#b23f93a9b7)"><path stroke-linecap="butt" transform="matrix(0.75, 0, 0, 0.75, 45.00555, 44.824523)" fill="none" stroke-linejoin="miter" d="M 189.9926 -0.000406275 C 85.060308 -0.000406275 -0.00219213 85.166261 -0.00219213 190.228761 C -0.00219213 295.286053 85.060308 380.452719 189.9926 380.452719 C 294.924892 380.452719 379.987392 295.286053 379.987392 190.228761 C 379.987392 85.166261 294.924892 -0.000406275 189.9926 -0.000406275 Z M 189.9926 -0.000406275 " stroke="#000000" stroke-width="16" stroke-opacity="1" stroke-miterlimit="4"/></g></g><g clip-path="url(#30251976a8)"><path stroke-linecap="butt" transform="matrix(0.75, 0, 0, 0.75, 28.472226, 138.751323)" fill="none" stroke-linejoin="miter" d="M 0.00057432 -0.00176385 L 424.063102 -0.00176385 L 424.063102 129.998245 L 0.00057432 129.998245 Z M 0.00057432 -0.00176385 " stroke="#e4277f" stroke-width="16" stroke-opacity="1" stroke-miterlimit="4"/></g><g clip-path="url(#d2bd981fac)"><g clip-path="url(#fffb938360)"><g transform="matrix(1, 0, 0, 1, 61, 60)"><g clip-path="url(#975f5ad05a)"><g clip-path="url(#c7911f7a93)"><g clip-path="url(#951e652dfc)"><path fill="#000000" d="M 0.671875 0.710938 L 255.578125 0.710938 L 255.578125 255.621094 L 0.671875 255.621094 Z M 0.671875 0.710938 " fill-opacity="1" fill-rule="nonzero"/></g></g></g></g></g></g><g clip-path="url(#a1af77343d)"><g clip-path="url(#bc41a4942d)"><path stroke-linecap="butt" transform="matrix(0.75, 0, 0, 0.75, 61.67083, 60.71157)" fill="none" stroke-linejoin="miter" d="M 169.938904 -0.000842818 C 76.084732 -0.000842818 0.00139327 76.176246 0.00139327 170.145002 C 0.00139327 264.113758 76.084732 340.296055 169.938904 340.296055 C 263.793077 340.296055 339.876416 264.113758 339.876416 170.145002 C 339.876416 76.176246 263.793077 -0.000842818 169.938904 -0.000842818 Z M 169.938904 -0.000842818 " stroke="#e4277f" stroke-width="8" stroke-opacity="1" stroke-miterlimit="4"/></g></g><g clip-path="url(#a07b98b422)"><g clip-path="url(#6b837a80b8)"><path stroke-linecap="butt" transform="matrix(0.75, 0, 0, 0.75, 64.47085, 64.470845)" fill="none" stroke-linejoin="miter" d="M 164.033669 0.00241451 C 73.439913 0.00241451 0.00240851 73.439919 0.00240851 164.033675 C 0.00240851 254.622223 73.439913 328.064936 164.033669 328.064936 C 254.622217 328.064936 328.06493 254.622223 328.06493 164.033675 C 328.06493 73.439919 254.622217 0.00241451 164.033669 0.00241451 Z M 164.033669 0.00241451 " stroke="#fdfdfd" stroke-width="16" stroke-opacity="1" stroke-miterlimit="4"/></g></g><path stroke-linecap="butt" transform="matrix(-0.00704899, 0.749967, -0.749967, -0.00704899, 145.849596, 98.717806)" fill="none" stroke-linejoin="miter" d="M 2.666993 56.412306 C 80.680311 -13.469838 158.694189 -13.468689 236.708577 56.410547 " stroke="#fdfdfd" stroke-width="8" stroke-opacity="1" stroke-miterlimit="4"/><path stroke-linecap="butt" transform="matrix(-0.00815848, -0.749956, 0.749956, -0.00815848, 236.253416, 275.54049)" fill="none" stroke-linejoin="miter" d="M 2.620489 52.792704 C 77.593049 -12.265394 152.566209 -12.262338 227.540083 52.791456 " stroke="#fdfdfd" stroke-width="8" stroke-opacity="1" stroke-miterlimit="4"/><path stroke-linecap="butt" transform="matrix(0.000000000000000186, 0.75, -0.75, 0.000000000000000186, 190.49428, 64.47655)" fill="none" stroke-linejoin="miter" d="M 0.0000164453 3.997582 L 328.078163 3.997582 " stroke="#fdfdfd" stroke-width="8" stroke-opacity="1" stroke-miterlimit="4"/><path stroke-linecap="butt" transform="matrix(0.75, 0.000000000000000065, -0.000000000000000065, 0.75, 64.47085, 184.499988)" fill="none" stroke-linejoin="miter" d="M 0.00240851 4.000016 L 328.075347 4.000016 " stroke="#fdfdfd" stroke-width="8" stroke-opacity="1" stroke-miterlimit="4"/><g clip-path="url(#16f21dbff9)"><g clip-path="url(#36e8fd63f1)"><path stroke-linecap="butt" transform="matrix(0.75, 0, 0, 0.75, 60.04544, 59.889747)" fill="none" stroke-linejoin="miter" d="M 169.939425 0.00117031 C 76.085252 0.00117031 0.00191366 76.178259 0.00191366 170.147015 C 0.00191366 264.115771 76.085252 340.292859 169.939425 340.292859 C 263.793598 340.292859 339.876936 264.115771 339.876936 170.147015 C 339.876936 76.178259 263.793598 0.00117031 169.939425 0.00117031 Z M 169.939425 0.00117031 " stroke="#e4277f" stroke-width="16" stroke-opacity="1" stroke-miterlimit="4"/></g></g><g clip-path="url(#cffc96fc28)"><g transform="matrix(1, 0, 0, 1, 28, 144)"><g clip-path="url(#6aa76dec03)"><g clip-path="url(#565d732d21)"><path fill="#000000" d="M 0.472656 0.75 L 318.425781 0.75 L 318.425781 86.25 L 0.472656 86.25 Z M 0.472656 0.75 " fill-opacity="1" fill-rule="nonzero"/></g></g></g></g><g clip-path="url(#1755da6c98)"><path stroke-linecap="butt" transform="matrix(0.75, 0, 0, 0.75, 28.472226, 144.751162)" fill="none" stroke-linejoin="miter" d="M 0.00057432 -0.00154893 L 424.063102 -0.00154893 L 424.063102 113.998459 L 0.00057432 113.998459 Z M 0.00057432 -0.00154893 " stroke="#fdfdfd" stroke-width="30" stroke-opacity="1" stroke-miterlimit="4"/></g><g clip-path="url(#e8dc058c2d)"><g transform="matrix(1, 0, 0, 1, 10, 150)"><g clip-path="url(#db4cfae00d)"><g clip-path="url(#ba9a93fbc7)"><path fill="#000000" d="M 0 0.75 L 355.441406 0.75 L 355.441406 74.25 L 0 74.25 Z M 0 0.75 " fill-opacity="1" fill-rule="nonzero"/></g></g></g></g><g fill="#fafafa" fill-opacity="1"><g transform="translate(17.558353, 206.354005)"><g><path d="M 10.105469 1.183594 L 0.835938 1.183594 L 0.835938 -36.386719 C 0.835938 -37.824219 1.347656 -39.054688 2.371094 -40.078125 C 3.394531 -41.101562 4.625 -41.613281 6.0625 -41.613281 C 7.503906 -41.613281 8.742188 -41.09375 9.78125 -40.050781 L 35.203125 -14.632812 L 34.363281 -13.796875 L 33.179688 -13.796875 L 33.179688 -41.613281 L 43.632812 -41.613281 L 43.632812 -4.042969 C 43.632812 -2.605469 43.121094 -1.371094 42.097656 -0.351562 C 41.078125 0.671875 39.84375 1.183594 38.40625 1.183594 C 36.96875 1.183594 35.726562 0.664062 34.6875 -0.375 L 9.269531 -25.792969 L 10.105469 -26.632812 L 11.292969 -26.632812 L 11.292969 1.183594 Z M 10.105469 -1.183594 L 10.105469 0 L 8.921875 0 L 8.921875 -29.492188 L 36.363281 -2.050781 C 36.941406 -1.472656 37.621094 -1.183594 38.40625 -1.183594 C 39.191406 -1.183594 39.863281 -1.464844 40.425781 -2.023438 C 40.984375 -2.585938 41.265625 -3.257812 41.265625 -4.042969 L 41.265625 -40.429688 L 42.449219 -40.429688 L 42.449219 -39.242188 L 34.363281 -39.242188 L 34.363281 -40.429688 L 35.546875 -40.429688 L 35.546875 -10.9375 L 8.105469 -38.378906 C 7.53125 -38.953125 6.847656 -39.242188 6.0625 -39.242188 C 5.28125 -39.242188 4.605469 -38.964844 4.046875 -38.402344 C 3.484375 -37.84375 3.207031 -37.167969 3.207031 -36.386719 L 3.207031 0 L 2.019531 0 L 2.019531 -1.183594 Z M 10.105469 -1.183594 "/></g></g></g><g fill="#fafafa" fill-opacity="1"><g transform="translate(62.935478, 206.354005)"><g><path d="M 34.363281 1.183594 L 10.105469 1.183594 C 8.410156 1.183594 6.851562 0.769531 5.4375 -0.0664062 C 4.03125 -0.894531 2.914062 -2.011719 2.085938 -3.417969 C 1.253906 -4.832031 0.835938 -6.386719 0.835938 -8.085938 L 0.835938 -17.355469 L 11.292969 -17.355469 L 11.292969 -8.085938 L 10.105469 -8.085938 L 10.105469 -9.269531 L 34.363281 -9.269531 L 34.363281 -8.085938 L 33.179688 -8.085938 L 33.179688 -32.34375 L 34.363281 -32.34375 L 34.363281 -31.15625 L 17.007812 -31.15625 L 17.007812 -41.613281 L 43.632812 -41.613281 L 43.632812 -8.085938 C 43.632812 -6.421875 43.21875 -4.882812 42.382812 -3.46875 C 41.558594 -2.066406 40.457031 -0.945312 39.074219 -0.101562 C 37.671875 0.757812 36.101562 1.183594 34.363281 1.183594 Z M 34.363281 -1.183594 C 35.65625 -1.183594 36.816406 -1.496094 37.839844 -2.121094 C 38.882812 -2.761719 39.71875 -3.609375 40.34375 -4.667969 C 40.957031 -5.714844 41.265625 -6.851562 41.265625 -8.085938 L 41.265625 -40.429688 L 42.449219 -40.429688 L 42.449219 -39.242188 L 18.191406 -39.242188 L 18.191406 -40.429688 L 19.378906 -40.429688 L 19.378906 -32.34375 L 18.191406 -32.34375 L 18.191406 -33.527344 L 35.546875 -33.527344 L 35.546875 -6.902344 L 8.921875 -6.902344 L 8.921875 -16.171875 L 10.105469 -16.171875 L 10.105469 -14.988281 L 2.019531 -14.988281 L 2.019531 -16.171875 L 3.207031 -16.171875 L 3.207031 -8.085938 C 3.207031 -6.820312 3.511719 -5.664062 4.128906 -4.617188 C 4.75 -3.566406 5.585938 -2.726562 6.640625 -2.105469 C 7.683594 -1.492188 8.839844 -1.183594 10.105469 -1.183594 Z M 34.363281 -1.183594 "/></g></g></g><g fill="#fafafa" fill-opacity="1"><g transform="translate(108.312604, 206.354005)"><g/></g></g><g fill="#fafafa" fill-opacity="1"><g transform="translate(131.456, 206.354005)"><g><path d="M 43.632812 -40.429688 L 43.632812 -31.15625 L 10.105469 -31.15625 L 10.105469 -32.34375 L 11.292969 -32.34375 L 11.292969 -24.257812 L 10.105469 -24.257812 L 10.105469 -25.441406 L 34.363281 -25.441406 C 36.0625 -25.441406 37.617188 -25.023438 39.03125 -24.191406 C 40.4375 -23.363281 41.554688 -22.246094 42.382812 -20.839844 C 43.21875 -19.425781 43.632812 -17.867188 43.632812 -16.171875 L 43.632812 -8.085938 C 43.632812 -6.386719 43.21875 -4.832031 42.382812 -3.417969 C 41.554688 -2.011719 40.4375 -0.894531 39.03125 -0.0664062 C 37.617188 0.769531 36.0625 1.183594 34.363281 1.183594 L 0.835938 1.183594 L 0.835938 -9.269531 L 34.363281 -9.269531 L 34.363281 -8.085938 L 33.179688 -8.085938 L 33.179688 -16.171875 L 34.363281 -16.171875 L 34.363281 -14.988281 L 10.105469 -14.988281 C 8.410156 -14.988281 6.851562 -15.402344 5.4375 -16.238281 C 4.03125 -17.066406 2.914062 -18.183594 2.085938 -19.585938 C 1.253906 -21.003906 0.835938 -22.558594 0.835938 -24.257812 L 0.835938 -32.34375 C 0.835938 -34.039062 1.253906 -35.597656 2.085938 -37.011719 C 2.914062 -38.417969 4.03125 -39.535156 5.4375 -40.363281 C 6.851562 -41.195312 8.410156 -41.613281 10.105469 -41.613281 L 43.632812 -41.613281 Z M 41.265625 -40.429688 L 42.449219 -40.429688 L 42.449219 -39.242188 L 10.105469 -39.242188 C 8.839844 -39.242188 7.683594 -38.9375 6.640625 -38.320312 C 5.585938 -37.699219 4.75 -36.863281 4.128906 -35.808594 C 3.511719 -34.765625 3.207031 -33.609375 3.207031 -32.34375 L 3.207031 -24.257812 C 3.207031 -22.988281 3.511719 -21.835938 4.128906 -20.789062 C 4.75 -19.734375 5.585938 -18.898438 6.640625 -18.277344 C 7.683594 -17.664062 8.839844 -17.355469 10.105469 -17.355469 L 35.546875 -17.355469 L 35.546875 -6.902344 L 2.019531 -6.902344 L 2.019531 -8.085938 L 3.207031 -8.085938 L 3.207031 0 L 2.019531 0 L 2.019531 -1.183594 L 34.363281 -1.183594 C 35.632812 -1.183594 36.785156 -1.492188 37.832031 -2.105469 C 38.882812 -2.726562 39.722656 -3.566406 40.34375 -4.617188 C 40.957031 -5.664062 41.265625 -6.820312 41.265625 -8.085938 L 41.265625 -16.171875 C 41.265625 -17.4375 40.957031 -18.59375 40.34375 -19.636719 C 39.722656 -20.691406 38.882812 -21.527344 37.832031 -22.148438 C 36.785156 -22.765625 35.632812 -23.074219 34.363281 -23.074219 L 8.921875 -23.074219 L 8.921875 -33.527344 L 42.449219 -33.527344 L 42.449219 -32.34375 L 41.265625 -32.34375 Z M 41.265625 -40.429688 "/></g></g></g><g fill="#fafafa" fill-opacity="1"><g transform="translate(176.833126, 206.354005)"><g><path d="M 43.632812 -40.429688 L 43.632812 -31.15625 L 26.277344 -31.15625 L 26.277344 -32.34375 L 27.460938 -32.34375 L 27.460938 1.183594 L 17.007812 1.183594 L 17.007812 -32.34375 L 18.191406 -32.34375 L 18.191406 -31.15625 L 0.835938 -31.15625 L 0.835938 -41.613281 L 43.632812 -41.613281 Z M 41.265625 -40.429688 L 42.449219 -40.429688 L 42.449219 -39.242188 L 2.019531 -39.242188 L 2.019531 -40.429688 L 3.207031 -40.429688 L 3.207031 -32.34375 L 2.019531 -32.34375 L 2.019531 -33.527344 L 19.378906 -33.527344 L 19.378906 0 L 18.191406 0 L 18.191406 -1.183594 L 26.277344 -1.183594 L 26.277344 0 L 25.09375 0 L 25.09375 -33.527344 L 42.449219 -33.527344 L 42.449219 -32.34375 L 41.265625 -32.34375 Z M 41.265625 -40.429688 "/></g></g></g><g fill="#fafafa" fill-opacity="1"><g transform="translate(222.21024, 206.354005)"><g><path d="M 10.105469 -41.613281 L 34.363281 -41.613281 C 36.0625 -41.613281 37.617188 -41.195312 39.03125 -40.363281 C 40.4375 -39.535156 41.554688 -38.417969 42.382812 -37.011719 C 43.21875 -35.597656 43.632812 -34.039062 43.632812 -32.34375 L 43.632812 1.183594 L 33.179688 1.183594 L 33.179688 -16.171875 L 34.363281 -16.171875 L 34.363281 -14.988281 L 10.105469 -14.988281 L 10.105469 -16.171875 L 11.292969 -16.171875 L 11.292969 1.183594 L 0.835938 1.183594 L 0.835938 -32.34375 C 0.835938 -34.039062 1.253906 -35.597656 2.085938 -37.011719 C 2.914062 -38.417969 4.03125 -39.535156 5.4375 -40.363281 C 6.851562 -41.195312 8.410156 -41.613281 10.105469 -41.613281 Z M 10.105469 -39.242188 C 8.839844 -39.242188 7.683594 -38.9375 6.640625 -38.320312 C 5.585938 -37.699219 4.75 -36.863281 4.128906 -35.808594 C 3.511719 -34.765625 3.207031 -33.609375 3.207031 -32.34375 L 3.207031 0 L 2.019531 0 L 2.019531 -1.183594 L 10.105469 -1.183594 L 10.105469 0 L 8.921875 0 L 8.921875 -17.355469 L 35.546875 -17.355469 L 35.546875 0 L 34.363281 0 L 34.363281 -1.183594 L 42.449219 -1.183594 L 42.449219 0 L 41.265625 0 L 41.265625 -32.34375 C 41.265625 -33.609375 40.957031 -34.765625 40.34375 -35.808594 C 39.722656 -36.863281 38.882812 -37.699219 37.832031 -38.320312 C 36.785156 -38.9375 35.632812 -39.242188 34.363281 -39.242188 Z M 11.292969 -32.34375 L 11.292969 -24.257812 L 10.105469 -24.257812 L 10.105469 -25.441406 L 34.363281 -25.441406 L 34.363281 -24.257812 L 33.179688 -24.257812 L 33.179688 -32.34375 L 34.363281 -32.34375 L 34.363281 -31.15625 L 10.105469 -31.15625 L 10.105469 -32.34375 Z M 8.921875 -33.527344 L 35.546875 -33.527344 L 35.546875 -23.074219 L 8.921875 -23.074219 Z M 8.921875 -33.527344 "/></g></g></g><g fill="#fafafa" fill-opacity="1"><g transform="translate(267.587389, 206.354005)"><g><path d="M 43.632812 -32.34375 L 43.632812 -24.257812 C 43.632812 -22.558594 43.21875 -21.003906 42.382812 -19.585938 C 41.554688 -18.183594 40.4375 -17.066406 39.03125 -16.238281 C 37.617188 -15.402344 36.0625 -14.988281 34.363281 -14.988281 L 26.277344 -14.988281 L 26.277344 -16.171875 L 27.117188 -17.007812 L 35.203125 -8.921875 L 34.363281 -8.085938 L 34.363281 -9.269531 L 43.632812 -9.269531 L 43.632812 1.183594 L 32.746094 1.183594 C 31.273438 1.183594 30.019531 0.664062 28.976562 -0.375 L 14.019531 -15.332031 L 14.855469 -16.171875 L 14.855469 -14.988281 L 10.105469 -14.988281 L 10.105469 -16.171875 L 11.292969 -16.171875 L 11.292969 1.183594 L 0.835938 1.183594 L 0.835938 -41.613281 L 34.363281 -41.613281 C 36.0625 -41.613281 37.617188 -41.195312 39.03125 -40.363281 C 40.4375 -39.535156 41.554688 -38.417969 42.382812 -37.011719 C 43.21875 -35.597656 43.632812 -34.039062 43.632812 -32.34375 Z M 41.265625 -32.34375 C 41.265625 -33.609375 40.957031 -34.765625 40.34375 -35.808594 C 39.722656 -36.863281 38.882812 -37.699219 37.832031 -38.320312 C 36.785156 -38.9375 35.632812 -39.242188 34.363281 -39.242188 L 2.019531 -39.242188 L 2.019531 -40.429688 L 3.207031 -40.429688 L 3.207031 0 L 2.019531 0 L 2.019531 -1.183594 L 10.105469 -1.183594 L 10.105469 0 L 8.921875 0 L 8.921875 -17.355469 L 15.347656 -17.355469 L 30.652344 -2.050781 C 31.230469 -1.472656 31.929688 -1.183594 32.746094 -1.183594 L 42.449219 -1.183594 L 42.449219 0 L 41.265625 0 L 41.265625 -8.085938 L 42.449219 -8.085938 L 42.449219 -6.902344 L 33.875 -6.902344 L 23.417969 -17.355469 L 34.363281 -17.355469 C 35.632812 -17.355469 36.785156 -17.664062 37.832031 -18.277344 C 38.882812 -18.898438 39.722656 -19.734375 40.34375 -20.789062 C 40.957031 -21.835938 41.265625 -22.988281 41.265625 -24.257812 Z M 34.363281 -31.15625 L 10.105469 -31.15625 L 10.105469 -32.34375 L 11.292969 -32.34375 L 11.292969 -24.257812 L 10.105469 -24.257812 L 10.105469 -25.441406 L 34.363281 -25.441406 L 34.363281 -24.257812 L 33.179688 -24.257812 L 33.179688 -32.34375 L 34.363281 -32.34375 Z M 35.546875 -33.527344 L 35.546875 -23.074219 L 8.921875 -23.074219 L 8.921875 -33.527344 Z M 35.546875 -33.527344 "/></g></g></g><g fill="#fafafa" fill-opacity="1"><g transform="translate(312.964492, 206.354005)"><g><path d="M 43.632812 -40.429688 L 43.632812 -31.15625 L 10.105469 -31.15625 L 10.105469 -32.34375 L 11.292969 -32.34375 L 11.292969 -24.257812 L 10.105469 -24.257812 L 10.105469 -25.441406 L 34.363281 -25.441406 C 36.0625 -25.441406 37.617188 -25.023438 39.03125 -24.191406 C 40.4375 -23.363281 41.554688 -22.246094 42.382812 -20.839844 C 43.21875 -19.425781 43.632812 -17.867188 43.632812 -16.171875 L 43.632812 -8.085938 C 43.632812 -6.386719 43.21875 -4.832031 42.382812 -3.417969 C 41.554688 -2.011719 40.4375 -0.894531 39.03125 -0.0664062 C 37.617188 0.769531 36.0625 1.183594 34.363281 1.183594 L 0.835938 1.183594 L 0.835938 -9.269531 L 34.363281 -9.269531 L 34.363281 -8.085938 L 33.179688 -8.085938 L 33.179688 -16.171875 L 34.363281 -16.171875 L 34.363281 -14.988281 L 10.105469 -14.988281 C 8.410156 -14.988281 6.851562 -15.402344 5.4375 -16.238281 C 4.03125 -17.066406 2.914062 -18.183594 2.085938 -19.585938 C 1.253906 -21.003906 0.835938 -22.558594 0.835938 -24.257812 L 0.835938 -32.34375 C 0.835938 -34.039062 1.253906 -35.597656 2.085938 -37.011719 C 2.914062 -38.417969 4.03125 -39.535156 5.4375 -40.363281 C 6.851562 -41.195312 8.410156 -41.613281 10.105469 -41.613281 L 43.632812 -41.613281 Z M 41.265625 -40.429688 L 42.449219 -40.429688 L 42.449219 -39.242188 L 10.105469 -39.242188 C 8.839844 -39.242188 7.683594 -38.9375 6.640625 -38.320312 C 5.585938 -37.699219 4.75 -36.863281 4.128906 -35.808594 C 3.511719 -34.765625 3.207031 -33.609375 3.207031 -32.34375 L 3.207031 -24.257812 C 3.207031 -22.988281 3.511719 -21.835938 4.128906 -20.789062 C 4.75 -19.734375 5.585938 -18.898438 6.640625 -18.277344 C 7.683594 -17.664062 8.839844 -17.355469 10.105469 -17.355469 L 35.546875 -17.355469 L 35.546875 -6.902344 L 2.019531 -6.902344 L 2.019531 -8.085938 L 3.207031 -8.085938 L 3.207031 0 L 2.019531 0 L 2.019531 -1.183594 L 34.363281 -1.183594 C 35.632812 -1.183594 36.785156 -1.492188 37.832031 -2.105469 C 38.882812 -2.726562 39.722656 -3.566406 40.34375 -4.617188 C 40.957031 -5.664062 41.265625 -6.820312 41.265625 -8.085938 L 41.265625 -16.171875 C 41.265625 -17.4375 40.957031 -18.59375 40.34375 -19.636719 C 39.722656 -20.691406 38.882812 -21.527344 37.832031 -22.148438 C 36.785156 -22.765625 35.632812 -23.074219 34.363281 -23.074219 L 8.921875 -23.074219 L 8.921875 -33.527344 L 42.449219 -33.527344 L 42.449219 -32.34375 L 41.265625 -32.34375 Z M 41.265625 -40.429688 "/></g></g></g></svg>