<svg xmlns="http://www.w3.org/2000/svg" xmlns:xlink="http://www.w3.org/1999/xlink" width="500" zoomAndPan="magnify" viewBox="0 0 375 374.999991" height="500" preserveAspectRatio="xMidYMid meet" version="1.0"><defs><g/><clipPath id="ef0412c0b0"><path d="M 33.402344 32.507812 L 331.5 32.507812 L 331.5 331.769531 L 33.402344 331.769531 Z M 33.402344 32.507812 " clip-rule="nonzero"/></clipPath><clipPath id="41bda1a5c0"><path d="M 182.449219 32.507812 C 100.132812 32.507812 33.402344 99.429688 33.402344 181.980469 C 33.402344 264.535156 100.132812 331.457031 182.449219 331.457031 C 264.769531 331.457031 331.5 264.535156 331.5 181.980469 C 331.5 99.429688 264.769531 32.507812 182.449219 32.507812 Z M 182.449219 32.507812 " clip-rule="nonzero"/></clipPath><clipPath id="b5d7c28994"><path d="M 0.402344 0.507812 L 298.5 0.507812 L 298.5 299.679688 L 0.402344 299.679688 Z M 0.402344 0.507812 " clip-rule="nonzero"/></clipPath><clipPath id="c495193d02"><path d="M 149.449219 0.507812 C 67.132812 0.507812 0.402344 67.429688 0.402344 149.980469 C 0.402344 232.535156 67.132812 299.457031 149.449219 299.457031 C 231.769531 299.457031 298.5 232.535156 298.5 149.980469 C 298.5 67.429688 231.769531 0.507812 149.449219 0.507812 Z M 149.449219 0.507812 " clip-rule="nonzero"/></clipPath><clipPath id="2e3383d590"><rect x="0" width="299" y="0" height="300"/></clipPath><clipPath id="b7f5d38f6a"><path d="M 33.402344 32.507812 L 331.605469 32.507812 L 331.605469 331.589844 L 33.402344 331.589844 Z M 33.402344 32.507812 " clip-rule="nonzero"/></clipPath><clipPath id="439b098152"><path d="M 182.449219 32.507812 C 100.132812 32.507812 33.402344 99.425781 33.402344 181.980469 C 33.402344 264.53125 100.132812 331.453125 182.449219 331.453125 C 264.765625 331.453125 331.496094 264.53125 331.496094 181.980469 C 331.496094 99.425781 264.765625 32.507812 182.449219 32.507812 Z M 182.449219 32.507812 " clip-rule="nonzero"/></clipPath><clipPath id="59f233e36c"><path d="M 36.675781 36.914062 L 324.355469 36.914062 L 324.355469 325.464844 L 36.675781 325.464844 Z M 36.675781 36.914062 " clip-rule="nonzero"/></clipPath><clipPath id="810a5155c2"><path d="M 180.542969 36.914062 C 101.085938 36.914062 36.675781 101.429688 36.675781 181.015625 C 36.675781 260.597656 101.085938 325.117188 180.542969 325.117188 C 260 325.117188 324.410156 260.597656 324.410156 181.015625 C 324.410156 101.429688 260 36.914062 180.542969 36.914062 Z M 180.542969 36.914062 " clip-rule="nonzero"/></clipPath><clipPath id="c6584a193d"><path d="M 31.5 31.542969 L 329.707031 31.542969 L 329.707031 330.625 L 31.5 330.625 Z M 31.5 31.542969 " clip-rule="nonzero"/></clipPath><clipPath id="e7460a8113"><path d="M 180.546875 31.542969 C 98.230469 31.542969 31.5 98.464844 31.5 181.015625 C 31.5 263.566406 98.230469 330.488281 180.546875 330.488281 C 262.863281 330.488281 329.59375 263.566406 329.59375 181.015625 C 329.59375 98.464844 262.863281 31.542969 180.546875 31.542969 Z M 180.546875 31.542969 " clip-rule="nonzero"/></clipPath><clipPath id="008b54738e"><rect x="0" width="365" y="0" height="364"/></clipPath><clipPath id="6575eff0a9"><path d="M 214.347656 31.019531 L 311.996094 31.019531 L 311.996094 123.949219 L 214.347656 123.949219 Z M 214.347656 31.019531 " clip-rule="nonzero"/></clipPath><clipPath id="a08994c94f"><path d="M 263.097656 31.019531 L 274.605469 66.515625 L 311.847656 66.515625 L 281.71875 88.453125 L 293.226562 123.949219 L 263.097656 102.011719 L 232.96875 123.949219 L 244.476562 88.453125 L 214.347656 66.515625 L 251.589844 66.515625 Z M 263.097656 31.019531 " clip-rule="nonzero"/></clipPath><clipPath id="067451f52b"><path d="M 0.347656 0.0195312 L 97.996094 0.0195312 L 97.996094 92.949219 L 0.347656 92.949219 Z M 0.347656 0.0195312 " clip-rule="nonzero"/></clipPath><clipPath id="072f667b9b"><path d="M 49.097656 0.0195312 L 60.605469 35.515625 L 97.847656 35.515625 L 67.71875 57.453125 L 79.226562 92.949219 L 49.097656 71.011719 L 18.96875 92.949219 L 30.476562 57.453125 L 0.347656 35.515625 L 37.589844 35.515625 Z M 49.097656 0.0195312 " clip-rule="nonzero"/></clipPath><clipPath id="8951d2917c"><rect x="0" width="98" y="0" height="93"/></clipPath><clipPath id="b489036bfc"><path d="M 214.347656 31.019531 L 311.847656 31.019531 L 311.847656 123.949219 L 214.347656 123.949219 Z M 214.347656 31.019531 " clip-rule="nonzero"/></clipPath><clipPath id="165fc0e3f7"><path d="M 263.097656 31.019531 L 274.605469 66.515625 L 311.847656 66.515625 L 281.71875 88.453125 L 293.226562 123.949219 L 263.097656 102.011719 L 232.96875 123.949219 L 244.476562 88.453125 L 214.347656 66.515625 L 251.589844 66.515625 Z M 263.097656 31.019531 " clip-rule="nonzero"/></clipPath></defs><g transform="matrix(1, 0, 0, 1, 6, 6)"><g clip-path="url(#008b54738e)"><g clip-path="url(#ef0412c0b0)"><g clip-path="url(#41bda1a5c0)"><g transform="matrix(1, 0, 0, 1, 33, 32)"><g clip-path="url(#2e3383d590)"><g clip-path="url(#b5d7c28994)"><g clip-path="url(#c495193d02)"><path fill="#1a1614" d="M 0.402344 0.507812 L 298.5 0.507812 L 298.5 299.769531 L 0.402344 299.769531 Z M 0.402344 0.507812 " fill-opacity="1" fill-rule="nonzero"/></g></g></g></g></g></g><g clip-path="url(#b7f5d38f6a)"><g clip-path="url(#439b098152)"><path stroke-linecap="butt" transform="matrix(0.877075, 0, 0, 0.877075, 33.40194, 32.506023)" fill="none" stroke-linejoin="miter" d="M 169.936782 0.00204059 C 76.08344 0.00204059 0.000459798 76.2988 0.000459798 170.423819 C 0.000459798 264.544384 76.08344 340.845597 169.936782 340.845597 C 263.790124 340.845597 339.873104 264.544384 339.873104 170.423819 C 339.873104 76.2988 263.790124 0.00204059 169.936782 0.00204059 Z M 169.936782 0.00204059 " stroke="#e4277f" stroke-width="17.102301" stroke-opacity="1" stroke-miterlimit="4"/></g></g><g clip-path="url(#59f233e36c)"><g clip-path="url(#810a5155c2)"><path stroke-linecap="butt" transform="matrix(0.877075, 0, 0, 0.877075, 36.675222, 36.913137)" fill="none" stroke-linejoin="miter" d="M 164.031321 0.00105528 C 73.438106 0.00105528 0.000638158 73.558774 0.000638158 164.298962 C 0.000638158 255.034697 73.438106 328.596868 164.031321 328.596868 C 254.624537 328.596868 328.062004 255.034697 328.062004 164.298962 C 328.062004 73.558774 254.624537 0.00105528 164.031321 0.00105528 Z M 164.031321 0.00105528 " stroke="#fdfdfd" stroke-width="17.102301" stroke-opacity="1" stroke-miterlimit="4"/></g></g><path stroke-linecap="butt" transform="matrix(-0.00822444, 0.877036, -0.877036, -0.00822444, 132.723511, 76.287211)" fill="none" stroke-linejoin="miter" d="M 3.333102 57.411933 C 81.525511 -12.472891 159.714104 -12.471211 237.907744 57.412437 " stroke="#fdfdfd" stroke-width="10" stroke-opacity="1" stroke-miterlimit="4"/><path stroke-linecap="butt" transform="matrix(-0.00951894, -0.877023, 0.877023, -0.00951894, 236.686981, 284.685245)" fill="none" stroke-linejoin="miter" d="M 3.270748 53.791266 C 78.41632 -11.263147 153.559536 -11.262645 228.70485 53.792819 " stroke="#fdfdfd" stroke-width="10" stroke-opacity="1" stroke-miterlimit="4"/><path stroke-linecap="butt" transform="matrix(0.00000000153078, 0.877075, -0.877075, 0.00000000153078, 184.933674, 36.714669)" fill="none" stroke-linejoin="miter" d="M 0.000199558 5.001625 L 328.832087 5.001626 " stroke="#fdfdfd" stroke-width="10" stroke-opacity="1" stroke-miterlimit="4"/><path stroke-linecap="butt" transform="matrix(0.877075, 0.000000000000000076, -0.000000000000000076, 0.877075, 36.675222, 176.532732)" fill="none" stroke-linejoin="miter" d="M 0.000638158 4.999844 L 328.079846 4.999844 " stroke="#fdfdfd" stroke-width="10" stroke-opacity="1" stroke-miterlimit="4"/><g clip-path="url(#c6584a193d)"><g clip-path="url(#e7460a8113)"><path stroke-linecap="butt" transform="matrix(0.877075, 0, 0, 0.877075, 31.501148, 31.542742)" fill="none" stroke-linejoin="miter" d="M 169.935013 0.000258787 C 76.081671 0.000258787 -0.00130921 76.301471 -0.00130921 170.422037 C -0.00130921 264.542602 76.081671 340.843815 169.935013 340.843815 C 263.788355 340.843815 339.871335 264.542602 339.871335 170.422037 C 339.871335 76.301471 263.788355 0.000258787 169.935013 0.000258787 Z M 169.935013 0.000258787 " stroke="#e4277f" stroke-width="17.102301" stroke-opacity="1" stroke-miterlimit="4"/></g></g></g></g><g fill="#e4277f" fill-opacity="1"><g transform="translate(74.708656, 237.749984)"><g><path d="M 25.375 10.308594 L -5.234375 10.308594 L -5.234375 -91.347656 C -5.234375 -94.113281 -4.722656 -96.730469 -3.699219 -99.191406 C -2.675781 -101.640625 -1.1875 -103.847656 0.765625 -105.804688 C 2.722656 -107.761719 4.929688 -109.25 7.378906 -110.269531 C 9.84375 -111.292969 12.457031 -111.804688 15.222656 -111.804688 C 18.007812 -111.804688 20.640625 -111.28125 23.125 -110.234375 C 25.570312 -109.207031 27.777344 -107.707031 29.746094 -105.738281 L 93.5625 -41.925781 L 86.273438 -34.636719 L 75.964844 -34.636719 L 75.964844 -111.804688 L 116.878906 -111.804688 L 116.878906 -10.148438 C 116.878906 -7.382812 116.367188 -4.765625 115.34375 -2.304688 C 114.324219 0.148438 112.835938 2.351562 110.878906 4.308594 C 108.921875 6.265625 106.71875 7.753906 104.265625 8.773438 C 101.804688 9.796875 99.1875 10.308594 96.421875 10.308594 C 93.636719 10.308594 91.003906 9.785156 88.519531 8.738281 C 86.074219 7.710938 83.867188 6.210938 81.902344 4.242188 L 18.085938 -59.570312 L 25.375 -66.859375 L 35.683594 -66.859375 L 35.683594 10.308594 Z M 25.375 -10.308594 L 25.375 0 L 15.066406 0 L 15.066406 -91.746094 L 96.480469 -10.332031 C 96.535156 -10.277344 96.582031 -10.234375 96.613281 -10.214844 C 96.59375 -10.230469 96.5625 -10.246094 96.519531 -10.261719 C 96.46875 -10.285156 96.417969 -10.296875 96.375 -10.308594 C 96.363281 -10.308594 96.359375 -10.308594 96.359375 -10.308594 C 96.375 -10.308594 96.394531 -10.308594 96.421875 -10.308594 C 96.464844 -10.308594 96.492188 -10.308594 96.496094 -10.308594 C 96.453125 -10.300781 96.402344 -10.285156 96.347656 -10.261719 C 96.296875 -10.242188 96.253906 -10.21875 96.21875 -10.195312 C 96.234375 -10.207031 96.261719 -10.230469 96.300781 -10.269531 C 96.339844 -10.3125 96.363281 -10.335938 96.375 -10.351562 C 96.351562 -10.316406 96.328125 -10.273438 96.308594 -10.222656 C 96.285156 -10.167969 96.269531 -10.117188 96.261719 -10.074219 C 96.261719 -10.078125 96.261719 -10.105469 96.261719 -10.148438 L 96.261719 -101.496094 L 106.570312 -101.496094 L 106.570312 -91.1875 L 86.273438 -91.1875 L 86.273438 -101.496094 L 96.578125 -101.496094 L 96.578125 -9.75 L 15.167969 -91.164062 C 15.109375 -91.21875 15.0625 -91.261719 15.03125 -91.28125 C 15.054688 -91.265625 15.085938 -91.25 15.125 -91.234375 C 15.175781 -91.210938 15.226562 -91.199219 15.273438 -91.1875 C 15.28125 -91.1875 15.285156 -91.1875 15.289062 -91.1875 C 15.273438 -91.1875 15.25 -91.1875 15.222656 -91.1875 C 15.179688 -91.1875 15.15625 -91.1875 15.148438 -91.1875 C 15.195312 -91.195312 15.242188 -91.210938 15.296875 -91.234375 C 15.347656 -91.253906 15.390625 -91.277344 15.425781 -91.300781 C 15.414062 -91.289062 15.386719 -91.265625 15.34375 -91.226562 C 15.304688 -91.183594 15.28125 -91.160156 15.269531 -91.144531 C 15.292969 -91.179688 15.316406 -91.222656 15.339844 -91.273438 C 15.359375 -91.328125 15.375 -91.378906 15.382812 -91.421875 C 15.382812 -91.417969 15.382812 -91.390625 15.382812 -91.347656 L 15.382812 0 L 5.074219 0 L 5.074219 -10.308594 Z M 25.375 -10.308594 "/></g></g></g><g fill="#e4277f" fill-opacity="1"><g transform="translate(188.635475, 237.749984)"><g><path d="M 86.273438 10.308594 L 25.375 10.308594 C 19.777344 10.308594 14.628906 8.921875 9.929688 6.152344 C 5.3125 3.433594 1.640625 -0.234375 -1.078125 -4.855469 C -3.847656 -9.554688 -5.234375 -14.703125 -5.234375 -20.300781 L -5.234375 -50.90625 L 35.683594 -50.90625 L 35.683594 -20.300781 L 25.375 -20.300781 L 25.375 -30.605469 L 86.273438 -30.605469 L 86.273438 -20.300781 L 75.964844 -20.300781 L 75.964844 -81.195312 L 86.273438 -81.195312 L 86.273438 -70.886719 L 35.363281 -70.886719 L 35.363281 -111.804688 L 116.878906 -111.804688 L 116.878906 -20.300781 C 116.878906 -14.789062 115.496094 -9.683594 112.726562 -4.980469 C 110.035156 -0.414062 106.433594 3.25 101.921875 6.003906 C 97.226562 8.875 92.011719 10.308594 86.273438 10.308594 Z M 86.273438 -10.308594 C 88.144531 -10.308594 89.777344 -10.734375 91.171875 -11.585938 C 92.75 -12.550781 94.015625 -13.835938 94.960938 -15.445312 C 95.828125 -16.917969 96.261719 -18.535156 96.261719 -20.300781 L 96.261719 -101.496094 L 106.570312 -101.496094 L 106.570312 -91.1875 L 45.671875 -91.1875 L 45.671875 -101.496094 L 55.980469 -101.496094 L 55.980469 -81.195312 L 45.671875 -81.195312 L 45.671875 -91.503906 L 96.578125 -91.503906 L 96.578125 -9.992188 L 15.066406 -9.992188 L 15.066406 -40.597656 L 25.375 -40.597656 L 25.375 -30.289062 L 5.074219 -30.289062 L 5.074219 -40.597656 L 15.382812 -40.597656 L 15.382812 -20.300781 C 15.382812 -18.453125 15.816406 -16.789062 16.683594 -15.316406 C 17.601562 -13.761719 18.835938 -12.527344 20.394531 -11.609375 C 21.867188 -10.742188 23.527344 -10.308594 25.375 -10.308594 Z M 86.273438 -10.308594 "/></g></g></g><g fill="#fdfdfd" fill-opacity="1"><g transform="translate(74.708656, 237.749984)"><g><path d="M 25.375 0 L 5.078125 0 L 5.078125 -91.34375 C 5.078125 -94.132812 6.066406 -96.523438 8.046875 -98.515625 C 10.035156 -100.503906 12.425781 -101.5 15.21875 -101.5 C 18.007812 -101.5 20.421875 -100.484375 22.453125 -98.453125 L 86.28125 -34.640625 L 86.28125 -101.5 L 106.578125 -101.5 L 106.578125 -10.15625 C 106.578125 -7.363281 105.582031 -4.972656 103.59375 -2.984375 C 101.601562 -0.992188 99.210938 0 96.421875 0 C 93.628906 0 91.21875 -1.015625 89.1875 -3.046875 L 25.375 -66.859375 Z M 25.375 0 "/></g></g></g><g fill="#fdfdfd" fill-opacity="1"><g transform="translate(188.635475, 237.749984)"><g><path d="M 86.28125 0 L 25.375 0 C 21.65625 0 18.25 -0.90625 15.15625 -2.71875 C 12.070312 -4.539062 9.617188 -6.992188 7.796875 -10.078125 C 5.984375 -13.171875 5.078125 -16.578125 5.078125 -20.296875 L 5.078125 -40.59375 L 25.375 -40.59375 L 25.375 -20.296875 L 86.28125 -20.296875 L 86.28125 -81.203125 L 45.671875 -81.203125 L 45.671875 -101.5 L 106.578125 -101.5 L 106.578125 -20.296875 C 106.578125 -16.660156 105.664062 -13.296875 103.84375 -10.203125 C 102.03125 -7.117188 99.597656 -4.644531 96.546875 -2.78125 C 93.503906 -0.925781 90.082031 0 86.28125 0 Z M 86.28125 0 "/></g></g></g><g clip-path="url(#6575eff0a9)"><g clip-path="url(#a08994c94f)"><g transform="matrix(1, 0, 0, 1, 214, 31)"><g clip-path="url(#8951d2917c)"><g clip-path="url(#067451f52b)"><g clip-path="url(#072f667b9b)"><path fill="#fdfdfd" d="M 0.347656 0.0195312 L 97.996094 0.0195312 L 97.996094 92.949219 L 0.347656 92.949219 Z M 0.347656 0.0195312 " fill-opacity="1" fill-rule="nonzero"/></g></g></g></g></g></g><g clip-path="url(#b489036bfc)"><g clip-path="url(#165fc0e3f7)"><path stroke-linecap="butt" transform="matrix(0.75, 0, 0, 0.75, 214.348877, 31.018563)" fill="none" stroke-linejoin="miter" d="M 64.998377 0.00129164 L 80.342128 47.32942 L 129.998381 47.32942 L 89.826503 76.579422 L 105.170254 123.90755 L 64.998377 94.657548 L 24.826499 123.90755 L 40.17025 76.579422 L -0.00162743 47.32942 L 49.654626 47.32942 Z M 64.998377 0.00129164 " stroke="#e4277f" stroke-width="16" stroke-opacity="1" stroke-miterlimit="4"/></g></g></svg>