<svg version="1.0" preserveAspectRatio="xMidYMid meet" viewBox="0.75 138.74999667 373.5 97.49999766" zoomAndPan="magnify" xmlns:xlink="http://www.w3.org/1999/xlink" xmlns="http://www.w3.org/2000/svg" style="max-height: 500px" width="373.5" height="97.49999766"><defs><g/><clipPath id="6e4e2154a0"><path clip-rule="nonzero" d="M 18.75 142.5 L 356.25 142.5 L 356.25 146.25 L 18.75 146.25 Z M 18.75 142.5"/></clipPath><clipPath id="b91b325bfc"><path clip-rule="nonzero" d="M 0.75 0.5 L 338.25 0.5 L 338.25 4.25 L 0.75 4.25 Z M 0.75 0.5"/></clipPath><clipPath id="b34c8c9e32"><rect height="5" y="0" width="339" x="0"/></clipPath><clipPath id="3e3c2bca94"><path clip-rule="nonzero" d="M 18.75 228.75 L 356.25 228.75 L 356.25 232.5 L 18.75 232.5 Z M 18.75 228.75"/></clipPath><clipPath id="179c2499e1"><path clip-rule="nonzero" d="M 0.75 0.75 L 338.25 0.75 L 338.25 4.5 L 0.75 4.5 Z M 0.75 0.75"/></clipPath><clipPath id="2cb541bbe6"><rect height="5" y="0" width="339" x="0"/></clipPath><clipPath id="7c7b6b4b9c"><rect height="65" y="0" width="368" x="0"/></clipPath><clipPath id="dea27aaccb"><path clip-rule="nonzero" d="M 18.75 146.25 L 356.25 146.25 L 356.25 150 L 18.75 150 Z M 18.75 146.25"/></clipPath><clipPath id="57ba0fd056"><path clip-rule="nonzero" d="M 0.75 0.25 L 338.25 0.25 L 338.25 4 L 0.75 4 Z M 0.75 0.25"/></clipPath><clipPath id="d9f2d94ce5"><rect height="4" y="0" width="339" x="0"/></clipPath><clipPath id="9c0197ce27"><path clip-rule="nonzero" d="M 18.75 225 L 356.25 225 L 356.25 228.75 L 18.75 228.75 Z M 18.75 225"/></clipPath><clipPath id="c7159825ad"><path clip-rule="nonzero" d="M 0.75 0 L 338.25 0 L 338.25 3.75 L 0.75 3.75 Z M 0.75 0"/></clipPath><clipPath id="2fb3e16219"><rect height="4" y="0" width="339" x="0"/></clipPath></defs><g clip-path="url(#6e4e2154a0)"><g transform="matrix(1, 0, 0, 1, 18, 142)"><g clip-path="url(#b34c8c9e32)"><g clip-path="url(#b91b325bfc)"><path fill-rule="nonzero" fill-opacity="1" d="M 0.75 0.5 L 338.25 0.5 L 338.25 4.25 L 0.75 4.25 Z M 0.75 0.5" fill="#cc3366"/></g></g></g></g><g clip-path="url(#3e3c2bca94)"><g transform="matrix(1, 0, 0, 1, 18, 228)"><g clip-path="url(#2cb541bbe6)"><g clip-path="url(#179c2499e1)"><path fill-rule="nonzero" fill-opacity="1" d="M 0.75 0.75 L 338.25 0.75 L 338.25 4.5 L 0.75 4.5 Z M 0.75 0.75" fill="#cc3366"/></g></g></g></g><g transform="matrix(1, 0, 0, 1, 4, 155)"><g clip-path="url(#7c7b6b4b9c)"><g fill-opacity="1" fill="#e4277f"><g transform="translate(1.433543, 53.389886)"><g><path d="M 10.828125 2.03125 L 0.136719 2.03125 L 0.136719 -38.980469 C 0.136719 -40.730469 0.757812 -42.226562 2.003906 -43.472656 C 3.246094 -44.71875 4.746094 -45.339844 6.496094 -45.339844 C 8.25 -45.339844 9.753906 -44.707031 11.019531 -43.445312 L 38.25 -16.214844 L 36.8125 -14.78125 L 34.78125 -14.78125 L 34.78125 -45.339844 L 47.503906 -45.339844 L 47.503906 -4.332031 C 47.503906 -2.578125 46.882812 -1.082031 45.636719 0.164062 C 44.394531 1.40625 42.894531 2.03125 41.144531 2.03125 C 39.390625 2.03125 37.886719 1.398438 36.621094 0.136719 L 9.390625 -27.09375 L 10.828125 -28.53125 L 12.859375 -28.53125 L 12.859375 2.03125 Z M 10.828125 -2.03125 L 10.828125 0 L 8.796875 0 L 8.796875 -33.429688 L 39.492188 -2.734375 C 39.964844 -2.265625 40.515625 -2.03125 41.144531 -2.03125 C 41.773438 -2.03125 42.316406 -2.257812 42.765625 -2.707031 C 43.21875 -3.160156 43.445312 -3.699219 43.445312 -4.332031 L 43.445312 -43.308594 L 45.476562 -43.308594 L 45.476562 -41.28125 L 36.8125 -41.28125 L 36.8125 -43.308594 L 38.84375 -43.308594 L 38.84375 -9.878906 L 8.148438 -40.574219 C 7.675781 -41.042969 7.125 -41.28125 6.496094 -41.28125 C 5.867188 -41.28125 5.324219 -41.054688 4.875 -40.601562 C 4.421875 -40.148438 4.195312 -39.609375 4.195312 -38.980469 L 4.195312 0 L 2.164062 0 L 2.164062 -2.03125 Z M 10.828125 -2.03125"/></g></g></g><g fill-opacity="1" fill="#e4277f"><g transform="translate(50.045001, 53.389886)"><g><path d="M 36.8125 2.03125 L 10.828125 2.03125 C 8.871094 2.03125 7.074219 1.546875 5.4375 0.585938 C 3.820312 -0.367188 2.535156 -1.65625 1.582031 -3.273438 C 0.617188 -4.910156 0.136719 -6.703125 0.136719 -8.660156 L 0.136719 -19.355469 L 12.859375 -19.355469 L 12.859375 -8.660156 L 10.828125 -8.660156 L 10.828125 -10.691406 L 36.8125 -10.691406 L 36.8125 -8.660156 L 34.78125 -8.660156 L 34.78125 -34.648438 L 36.8125 -34.648438 L 36.8125 -32.617188 L 17.460938 -32.617188 L 17.460938 -45.339844 L 47.503906 -45.339844 L 47.503906 -8.660156 C 47.503906 -6.742188 47.023438 -4.960938 46.058594 -3.328125 C 45.113281 -1.71875 43.84375 -0.429688 42.257812 0.542969 C 40.632812 1.535156 38.816406 2.03125 36.8125 2.03125 Z M 36.8125 -2.03125 C 38.054688 -2.03125 39.164062 -2.328125 40.140625 -2.921875 C 41.148438 -3.539062 41.957031 -4.363281 42.5625 -5.386719 C 43.152344 -6.386719 43.445312 -7.480469 43.445312 -8.660156 L 43.445312 -43.308594 L 45.476562 -43.308594 L 45.476562 -41.28125 L 19.488281 -41.28125 L 19.488281 -43.308594 L 21.519531 -43.308594 L 21.519531 -34.648438 L 19.488281 -34.648438 L 19.488281 -36.679688 L 38.84375 -36.679688 L 38.84375 -6.632812 L 8.796875 -6.632812 L 8.796875 -17.324219 L 10.828125 -17.324219 L 10.828125 -15.292969 L 2.164062 -15.292969 L 2.164062 -17.324219 L 4.195312 -17.324219 L 4.195312 -8.660156 C 4.195312 -7.441406 4.488281 -6.332031 5.078125 -5.335938 C 5.675781 -4.320312 6.484375 -3.511719 7.5 -2.914062 C 8.5 -2.324219 9.609375 -2.03125 10.828125 -2.03125 Z M 36.8125 -2.03125"/></g></g></g><g fill-opacity="1" fill="#e4277f"><g transform="translate(98.656458, 53.389886)"><g/></g></g><g fill-opacity="1" fill="#e4277f"><g transform="translate(123.44944, 53.389886)"><g><path d="M 47.503906 -43.308594 L 47.503906 -32.617188 L 10.828125 -32.617188 L 10.828125 -34.648438 L 12.859375 -34.648438 L 12.859375 -25.984375 L 10.828125 -25.984375 L 10.828125 -28.015625 L 36.8125 -28.015625 C 38.769531 -28.015625 40.566406 -27.535156 42.203125 -26.570312 C 43.820312 -25.617188 45.105469 -24.332031 46.058594 -22.710938 C 47.023438 -21.078125 47.503906 -19.28125 47.503906 -17.324219 L 47.503906 -8.660156 C 47.503906 -6.703125 47.023438 -4.910156 46.058594 -3.273438 C 45.105469 -1.65625 43.820312 -0.367188 42.203125 0.585938 C 40.566406 1.546875 38.769531 2.03125 36.8125 2.03125 L 0.136719 2.03125 L 0.136719 -10.691406 L 36.8125 -10.691406 L 36.8125 -8.660156 L 34.78125 -8.660156 L 34.78125 -17.324219 L 36.8125 -17.324219 L 36.8125 -15.292969 L 10.828125 -15.292969 C 8.871094 -15.292969 7.074219 -15.773438 5.4375 -16.738281 C 3.820312 -17.691406 2.535156 -18.976562 1.582031 -20.597656 C 0.617188 -22.234375 0.136719 -24.027344 0.136719 -25.984375 L 0.136719 -34.648438 C 0.136719 -36.605469 0.617188 -38.402344 1.582031 -40.035156 C 2.535156 -41.65625 3.820312 -42.941406 5.4375 -43.894531 C 7.074219 -44.859375 8.871094 -45.339844 10.828125 -45.339844 L 47.503906 -45.339844 Z M 43.445312 -43.308594 L 45.476562 -43.308594 L 45.476562 -41.28125 L 10.828125 -41.28125 C 9.609375 -41.28125 8.5 -40.984375 7.5 -40.394531 C 6.484375 -39.796875 5.675781 -38.992188 5.078125 -37.976562 C 4.488281 -36.976562 4.195312 -35.867188 4.195312 -34.648438 L 4.195312 -25.984375 C 4.195312 -24.765625 4.488281 -23.65625 5.078125 -22.65625 C 5.675781 -21.640625 6.484375 -20.835938 7.5 -20.238281 C 8.5 -19.648438 9.609375 -19.355469 10.828125 -19.355469 L 38.84375 -19.355469 L 38.84375 -6.632812 L 2.164062 -6.632812 L 2.164062 -8.660156 L 4.195312 -8.660156 L 4.195312 0 L 2.164062 0 L 2.164062 -2.03125 L 36.8125 -2.03125 C 38.03125 -2.03125 39.140625 -2.324219 40.140625 -2.914062 C 41.15625 -3.511719 41.964844 -4.320312 42.5625 -5.335938 C 43.152344 -6.332031 43.445312 -7.441406 43.445312 -8.660156 L 43.445312 -17.324219 C 43.445312 -18.542969 43.152344 -19.652344 42.5625 -20.652344 C 41.964844 -21.667969 41.15625 -22.472656 40.140625 -23.074219 C 39.140625 -23.660156 38.03125 -23.957031 36.8125 -23.957031 L 8.796875 -23.957031 L 8.796875 -36.679688 L 45.476562 -36.679688 L 45.476562 -34.648438 L 43.445312 -34.648438 Z M 43.445312 -43.308594"/></g></g></g><g fill-opacity="1" fill="#e4277f"><g transform="translate(172.060897, 53.389886)"><g><path d="M 47.503906 -43.308594 L 47.503906 -32.617188 L 28.152344 -32.617188 L 28.152344 -34.648438 L 30.179688 -34.648438 L 30.179688 2.03125 L 17.460938 2.03125 L 17.460938 -34.648438 L 19.488281 -34.648438 L 19.488281 -32.617188 L 0.136719 -32.617188 L 0.136719 -45.339844 L 47.503906 -45.339844 Z M 43.445312 -43.308594 L 45.476562 -43.308594 L 45.476562 -41.28125 L 2.164062 -41.28125 L 2.164062 -43.308594 L 4.195312 -43.308594 L 4.195312 -34.648438 L 2.164062 -34.648438 L 2.164062 -36.679688 L 21.519531 -36.679688 L 21.519531 0 L 19.488281 0 L 19.488281 -2.03125 L 28.152344 -2.03125 L 28.152344 0 L 26.121094 0 L 26.121094 -36.679688 L 45.476562 -36.679688 L 45.476562 -34.648438 L 43.445312 -34.648438 Z M 43.445312 -43.308594"/></g></g></g><g fill-opacity="1" fill="#e4277f"><g transform="translate(220.672343, 53.389886)"><g><path d="M 10.828125 -45.339844 L 36.8125 -45.339844 C 38.769531 -45.339844 40.566406 -44.859375 42.203125 -43.894531 C 43.820312 -42.941406 45.105469 -41.65625 46.058594 -40.035156 C 47.023438 -38.402344 47.503906 -36.605469 47.503906 -34.648438 L 47.503906 2.03125 L 34.78125 2.03125 L 34.78125 -17.324219 L 36.8125 -17.324219 L 36.8125 -15.292969 L 10.828125 -15.292969 L 10.828125 -17.324219 L 12.859375 -17.324219 L 12.859375 2.03125 L 0.136719 2.03125 L 0.136719 -34.648438 C 0.136719 -36.605469 0.617188 -38.402344 1.582031 -40.035156 C 2.535156 -41.65625 3.820312 -42.941406 5.4375 -43.894531 C 7.074219 -44.859375 8.871094 -45.339844 10.828125 -45.339844 Z M 10.828125 -41.28125 C 9.609375 -41.28125 8.5 -40.984375 7.5 -40.394531 C 6.484375 -39.796875 5.675781 -38.992188 5.078125 -37.976562 C 4.488281 -36.976562 4.195312 -35.867188 4.195312 -34.648438 L 4.195312 0 L 2.164062 0 L 2.164062 -2.03125 L 10.828125 -2.03125 L 10.828125 0 L 8.796875 0 L 8.796875 -19.355469 L 38.84375 -19.355469 L 38.84375 0 L 36.8125 0 L 36.8125 -2.03125 L 45.476562 -2.03125 L 45.476562 0 L 43.445312 0 L 43.445312 -34.648438 C 43.445312 -35.867188 43.152344 -36.976562 42.5625 -37.976562 C 41.964844 -38.992188 41.15625 -39.796875 40.140625 -40.394531 C 39.140625 -40.984375 38.03125 -41.28125 36.8125 -41.28125 Z M 12.859375 -34.648438 L 12.859375 -25.984375 L 10.828125 -25.984375 L 10.828125 -28.015625 L 36.8125 -28.015625 L 36.8125 -25.984375 L 34.78125 -25.984375 L 34.78125 -34.648438 L 36.8125 -34.648438 L 36.8125 -32.617188 L 10.828125 -32.617188 L 10.828125 -34.648438 Z M 8.796875 -36.679688 L 38.84375 -36.679688 L 38.84375 -23.957031 L 8.796875 -23.957031 Z M 8.796875 -36.679688"/></g></g></g><g fill-opacity="1" fill="#e4277f"><g transform="translate(269.283825, 53.389886)"><g><path d="M 47.503906 -34.648438 L 47.503906 -25.984375 C 47.503906 -24.027344 47.023438 -22.234375 46.058594 -20.597656 C 45.105469 -18.976562 43.820312 -17.691406 42.203125 -16.738281 C 40.566406 -15.773438 38.769531 -15.292969 36.8125 -15.292969 L 28.152344 -15.292969 L 28.152344 -17.324219 L 29.585938 -18.757812 L 38.25 -10.097656 L 36.8125 -8.660156 L 36.8125 -10.691406 L 47.503906 -10.691406 L 47.503906 2.03125 L 35.082031 2.03125 C 33.292969 2.03125 31.769531 1.398438 30.503906 0.136719 L 14.480469 -15.886719 L 15.917969 -17.324219 L 15.917969 -15.292969 L 10.828125 -15.292969 L 10.828125 -17.324219 L 12.859375 -17.324219 L 12.859375 2.03125 L 0.136719 2.03125 L 0.136719 -45.339844 L 36.8125 -45.339844 C 38.769531 -45.339844 40.566406 -44.859375 42.203125 -43.894531 C 43.820312 -42.941406 45.105469 -41.65625 46.058594 -40.035156 C 47.023438 -38.402344 47.503906 -36.605469 47.503906 -34.648438 Z M 43.445312 -34.648438 C 43.445312 -35.867188 43.152344 -36.976562 42.5625 -37.976562 C 41.964844 -38.992188 41.15625 -39.796875 40.140625 -40.394531 C 39.140625 -40.984375 38.03125 -41.28125 36.8125 -41.28125 L 2.164062 -41.28125 L 2.164062 -43.308594 L 4.195312 -43.308594 L 4.195312 0 L 2.164062 0 L 2.164062 -2.03125 L 10.828125 -2.03125 L 10.828125 0 L 8.796875 0 L 8.796875 -19.355469 L 16.757812 -19.355469 L 33.375 -2.734375 C 33.847656 -2.265625 34.414062 -2.03125 35.082031 -2.03125 L 45.476562 -2.03125 L 45.476562 0 L 43.445312 0 L 43.445312 -8.660156 L 45.476562 -8.660156 L 45.476562 -6.632812 L 35.972656 -6.632812 L 23.25 -19.355469 L 36.8125 -19.355469 C 38.03125 -19.355469 39.140625 -19.648438 40.140625 -20.238281 C 41.15625 -20.835938 41.964844 -21.640625 42.5625 -22.65625 C 43.152344 -23.65625 43.445312 -24.765625 43.445312 -25.984375 Z M 36.8125 -32.617188 L 10.828125 -32.617188 L 10.828125 -34.648438 L 12.859375 -34.648438 L 12.859375 -25.984375 L 10.828125 -25.984375 L 10.828125 -28.015625 L 36.8125 -28.015625 L 36.8125 -25.984375 L 34.78125 -25.984375 L 34.78125 -34.648438 L 36.8125 -34.648438 Z M 38.84375 -36.679688 L 38.84375 -23.957031 L 8.796875 -23.957031 L 8.796875 -36.679688 Z M 38.84375 -36.679688"/></g></g></g><g fill-opacity="1" fill="#e4277f"><g transform="translate(317.895258, 53.389886)"><g><path d="M 47.503906 -43.308594 L 47.503906 -32.617188 L 10.828125 -32.617188 L 10.828125 -34.648438 L 12.859375 -34.648438 L 12.859375 -25.984375 L 10.828125 -25.984375 L 10.828125 -28.015625 L 36.8125 -28.015625 C 38.769531 -28.015625 40.566406 -27.535156 42.203125 -26.570312 C 43.820312 -25.617188 45.105469 -24.332031 46.058594 -22.710938 C 47.023438 -21.078125 47.503906 -19.28125 47.503906 -17.324219 L 47.503906 -8.660156 C 47.503906 -6.703125 47.023438 -4.910156 46.058594 -3.273438 C 45.105469 -1.65625 43.820312 -0.367188 42.203125 0.585938 C 40.566406 1.546875 38.769531 2.03125 36.8125 2.03125 L 0.136719 2.03125 L 0.136719 -10.691406 L 36.8125 -10.691406 L 36.8125 -8.660156 L 34.78125 -8.660156 L 34.78125 -17.324219 L 36.8125 -17.324219 L 36.8125 -15.292969 L 10.828125 -15.292969 C 8.871094 -15.292969 7.074219 -15.773438 5.4375 -16.738281 C 3.820312 -17.691406 2.535156 -18.976562 1.582031 -20.597656 C 0.617188 -22.234375 0.136719 -24.027344 0.136719 -25.984375 L 0.136719 -34.648438 C 0.136719 -36.605469 0.617188 -38.402344 1.582031 -40.035156 C 2.535156 -41.65625 3.820312 -42.941406 5.4375 -43.894531 C 7.074219 -44.859375 8.871094 -45.339844 10.828125 -45.339844 L 47.503906 -45.339844 Z M 43.445312 -43.308594 L 45.476562 -43.308594 L 45.476562 -41.28125 L 10.828125 -41.28125 C 9.609375 -41.28125 8.5 -40.984375 7.5 -40.394531 C 6.484375 -39.796875 5.675781 -38.992188 5.078125 -37.976562 C 4.488281 -36.976562 4.195312 -35.867188 4.195312 -34.648438 L 4.195312 -25.984375 C 4.195312 -24.765625 4.488281 -23.65625 5.078125 -22.65625 C 5.675781 -21.640625 6.484375 -20.835938 7.5 -20.238281 C 8.5 -19.648438 9.609375 -19.355469 10.828125 -19.355469 L 38.84375 -19.355469 L 38.84375 -6.632812 L 2.164062 -6.632812 L 2.164062 -8.660156 L 4.195312 -8.660156 L 4.195312 0 L 2.164062 0 L 2.164062 -2.03125 L 36.8125 -2.03125 C 38.03125 -2.03125 39.140625 -2.324219 40.140625 -2.914062 C 41.15625 -3.511719 41.964844 -4.320312 42.5625 -5.335938 C 43.152344 -6.332031 43.445312 -7.441406 43.445312 -8.660156 L 43.445312 -17.324219 C 43.445312 -18.542969 43.152344 -19.652344 42.5625 -20.652344 C 41.964844 -21.667969 41.15625 -22.472656 40.140625 -23.074219 C 39.140625 -23.660156 38.03125 -23.957031 36.8125 -23.957031 L 8.796875 -23.957031 L 8.796875 -36.679688 L 45.476562 -36.679688 L 45.476562 -34.648438 L 43.445312 -34.648438 Z M 43.445312 -43.308594"/></g></g></g><g fill-opacity="1" fill="#000000"><g transform="translate(1.433543, 53.389886)"><g><path d="M 10.828125 0 L 2.171875 0 L 2.171875 -38.984375 C 2.171875 -40.171875 2.59375 -41.1875 3.4375 -42.03125 C 4.28125 -42.882812 5.300781 -43.3125 6.5 -43.3125 C 7.6875 -43.3125 8.710938 -42.878906 9.578125 -42.015625 L 36.8125 -14.78125 L 36.8125 -43.3125 L 45.484375 -43.3125 L 45.484375 -4.328125 C 45.484375 -3.140625 45.054688 -2.117188 44.203125 -1.265625 C 43.359375 -0.421875 42.335938 0 41.140625 0 C 39.953125 0 38.925781 -0.429688 38.0625 -1.296875 L 10.828125 -28.53125 Z M 10.828125 0"/></g></g></g><g fill-opacity="1" fill="#000000"><g transform="translate(50.045001, 53.389886)"><g><path d="M 36.8125 0 L 10.828125 0 C 9.242188 0 7.789062 -0.382812 6.46875 -1.15625 C 5.15625 -1.9375 4.109375 -2.984375 3.328125 -4.296875 C 2.554688 -5.617188 2.171875 -7.070312 2.171875 -8.65625 L 2.171875 -17.328125 L 10.828125 -17.328125 L 10.828125 -8.65625 L 36.8125 -8.65625 L 36.8125 -34.65625 L 19.484375 -34.65625 L 19.484375 -43.3125 L 45.484375 -43.3125 L 45.484375 -8.65625 C 45.484375 -7.101562 45.09375 -5.664062 44.3125 -4.34375 C 43.539062 -3.03125 42.503906 -1.976562 41.203125 -1.1875 C 39.898438 -0.394531 38.4375 0 36.8125 0 Z M 36.8125 0"/></g></g></g><g fill-opacity="1" fill="#000000"><g transform="translate(98.656458, 53.389886)"><g/></g></g><g fill-opacity="1" fill="#000000"><g transform="translate(123.44944, 53.389886)"><g><path d="M 45.484375 -43.3125 L 45.484375 -34.65625 L 10.828125 -34.65625 L 10.828125 -25.984375 L 36.8125 -25.984375 C 38.40625 -25.984375 39.859375 -25.59375 41.171875 -24.8125 C 42.492188 -24.039062 43.539062 -22.992188 44.3125 -21.671875 C 45.09375 -20.359375 45.484375 -18.910156 45.484375 -17.328125 L 45.484375 -8.65625 C 45.484375 -7.070312 45.09375 -5.617188 44.3125 -4.296875 C 43.539062 -2.984375 42.492188 -1.9375 41.171875 -1.15625 C 39.859375 -0.382812 38.40625 0 36.8125 0 L 2.171875 0 L 2.171875 -8.65625 L 36.8125 -8.65625 L 36.8125 -17.328125 L 10.828125 -17.328125 C 9.242188 -17.328125 7.789062 -17.710938 6.46875 -18.484375 C 5.15625 -19.265625 4.109375 -20.3125 3.328125 -21.625 C 2.554688 -22.945312 2.171875 -24.398438 2.171875 -25.984375 L 2.171875 -34.65625 C 2.171875 -36.238281 2.554688 -37.6875 3.328125 -39 C 4.109375 -40.320312 5.15625 -41.367188 6.46875 -42.140625 C 7.789062 -42.921875 9.242188 -43.3125 10.828125 -43.3125 Z M 45.484375 -43.3125"/></g></g></g><g fill-opacity="1" fill="#000000"><g transform="translate(172.060897, 53.389886)"><g><path d="M 45.484375 -43.3125 L 45.484375 -34.65625 L 28.15625 -34.65625 L 28.15625 0 L 19.484375 0 L 19.484375 -34.65625 L 2.171875 -34.65625 L 2.171875 -43.3125 Z M 45.484375 -43.3125"/></g></g></g><g fill-opacity="1" fill="#000000"><g transform="translate(220.672343, 53.389886)"><g><path d="M 10.828125 -43.3125 L 36.8125 -43.3125 C 38.40625 -43.3125 39.859375 -42.921875 41.171875 -42.140625 C 42.492188 -41.367188 43.539062 -40.320312 44.3125 -39 C 45.09375 -37.6875 45.484375 -36.238281 45.484375 -34.65625 L 45.484375 0 L 36.8125 0 L 36.8125 -17.328125 L 10.828125 -17.328125 L 10.828125 0 L 2.171875 0 L 2.171875 -34.65625 C 2.171875 -36.238281 2.554688 -37.6875 3.328125 -39 C 4.109375 -40.320312 5.15625 -41.367188 6.46875 -42.140625 C 7.789062 -42.921875 9.242188 -43.3125 10.828125 -43.3125 Z M 10.828125 -34.65625 L 10.828125 -25.984375 L 36.8125 -25.984375 L 36.8125 -34.65625 Z M 10.828125 -34.65625"/></g></g></g><g fill-opacity="1" fill="#000000"><g transform="translate(269.283825, 53.389886)"><g><path d="M 45.484375 -34.65625 L 45.484375 -25.984375 C 45.484375 -24.398438 45.09375 -22.945312 44.3125 -21.625 C 43.539062 -20.3125 42.492188 -19.265625 41.171875 -18.484375 C 39.859375 -17.710938 38.40625 -17.328125 36.8125 -17.328125 L 28.15625 -17.328125 L 36.8125 -8.65625 L 45.484375 -8.65625 L 45.484375 0 L 35.078125 0 C 33.859375 0 32.8125 -0.429688 31.9375 -1.296875 L 15.921875 -17.328125 L 10.828125 -17.328125 L 10.828125 0 L 2.171875 0 L 2.171875 -43.3125 L 36.8125 -43.3125 C 38.40625 -43.3125 39.859375 -42.921875 41.171875 -42.140625 C 42.492188 -41.367188 43.539062 -40.320312 44.3125 -39 C 45.09375 -37.6875 45.484375 -36.238281 45.484375 -34.65625 Z M 36.8125 -34.65625 L 10.828125 -34.65625 L 10.828125 -25.984375 L 36.8125 -25.984375 Z M 36.8125 -34.65625"/></g></g></g><g fill-opacity="1" fill="#000000"><g transform="translate(317.895258, 53.389886)"><g><path d="M 45.484375 -43.3125 L 45.484375 -34.65625 L 10.828125 -34.65625 L 10.828125 -25.984375 L 36.8125 -25.984375 C 38.40625 -25.984375 39.859375 -25.59375 41.171875 -24.8125 C 42.492188 -24.039062 43.539062 -22.992188 44.3125 -21.671875 C 45.09375 -20.359375 45.484375 -18.910156 45.484375 -17.328125 L 45.484375 -8.65625 C 45.484375 -7.070312 45.09375 -5.617188 44.3125 -4.296875 C 43.539062 -2.984375 42.492188 -1.9375 41.171875 -1.15625 C 39.859375 -0.382812 38.40625 0 36.8125 0 L 2.171875 0 L 2.171875 -8.65625 L 36.8125 -8.65625 L 36.8125 -17.328125 L 10.828125 -17.328125 C 9.242188 -17.328125 7.789062 -17.710938 6.46875 -18.484375 C 5.15625 -19.265625 4.109375 -20.3125 3.328125 -21.625 C 2.554688 -22.945312 2.171875 -24.398438 2.171875 -25.984375 L 2.171875 -34.65625 C 2.171875 -36.238281 2.554688 -37.6875 3.328125 -39 C 4.109375 -40.320312 5.15625 -41.367188 6.46875 -42.140625 C 7.789062 -42.921875 9.242188 -43.3125 10.828125 -43.3125 Z M 45.484375 -43.3125"/></g></g></g></g></g><g clip-path="url(#dea27aaccb)"><g transform="matrix(1, 0, 0, 1, 18, 146)"><g clip-path="url(#d9f2d94ce5)"><g clip-path="url(#57ba0fd056)"><path fill-rule="nonzero" fill-opacity="1" d="M 0.75 0.25 L 338.25 0.25 L 338.25 4 L 0.75 4 Z M 0.75 0.25" fill="#000000"/></g></g></g></g><g clip-path="url(#9c0197ce27)"><g transform="matrix(1, 0, 0, 1, 18, 225)"><g clip-path="url(#2fb3e16219)"><g clip-path="url(#c7159825ad)"><path fill-rule="nonzero" fill-opacity="1" d="M 0.75 0 L 338.25 0 L 338.25 3.75 L 0.75 3.75 Z M 0.75 0" fill="#000000"/></g></g></g></g></svg>